<svg width="20" height="20" viewBox="0 0 20 20" fill="none" xmlns="http://www.w3.org/2000/svg">
<g clip-path="url(#clip0_1307_761)">
<path d="M9.99953 1.875C8.25781 1.87541 6.56233 2.4355 5.16309 3.47268C3.76386 4.50985 2.73495 5.96921 2.2281 7.63555C1.72124 9.30189 1.76327 11.087 2.34798 12.7276C2.9327 14.3683 4.02914 15.7776 5.47564 16.7478C6.92213 17.718 8.6421 18.1976 10.3819 18.1161C12.1217 18.0345 13.7893 17.3961 15.1387 16.2948C16.4881 15.1936 17.4479 13.6879 17.8765 11.9997C18.3052 10.3116 18.18 8.53036 17.5195 6.91875C17.425 6.68867 17.4258 6.43048 17.5217 6.20099C17.6176 5.97149 17.8007 5.78948 18.0308 5.695C18.2609 5.60051 18.519 5.6013 18.7485 5.69717C18.978 5.79305 19.16 5.97617 19.2545 6.20625C20.1304 8.34403 20.239 10.7191 19.5619 12.9279C18.8849 15.1367 17.464 17.0429 15.5406 18.3227C13.6172 19.6025 11.3101 20.1768 9.01119 19.9482C6.71231 19.7195 4.5635 18.7019 2.92992 17.0684C1.29635 15.4348 0.278765 13.286 0.0500982 10.9871C-0.178569 8.6882 0.395784 6.38105 1.67556 4.45769C2.95533 2.53432 4.86158 1.11339 7.07037 0.436351C9.27917 -0.240689 11.6543 -0.132072 13.792 0.743746C13.906 0.790447 14.0097 0.859146 14.0972 0.945919C14.1846 1.03269 14.2541 1.13584 14.3017 1.24948C14.3493 1.36311 14.3741 1.48501 14.3745 1.60821C14.375 1.73141 14.3512 1.85349 14.3045 1.9675C14.2578 2.0815 14.1891 2.18519 14.1024 2.27264C14.0156 2.3601 13.9124 2.4296 13.7988 2.47719C13.6852 2.52478 13.5633 2.54952 13.4401 2.55001C13.3169 2.55049 13.1948 2.5267 13.0808 2.48C12.1031 2.07905 11.0563 1.87352 9.99953 1.875ZM17.8495 2.15C18.0251 2.32578 18.1237 2.56406 18.1237 2.8125C18.1237 3.06093 18.0251 3.29921 17.8495 3.475L12.7708 8.555C13.1162 9.21698 13.2131 9.98075 13.0441 10.708C12.875 11.4353 12.4512 12.078 11.8492 12.5198C11.2473 12.9616 10.5071 13.1733 9.76257 13.1165C9.01806 13.0597 8.31849 12.7382 7.79052 12.2103C7.26254 11.6823 6.94106 10.9827 6.88428 10.2382C6.82749 9.4937 7.03916 8.75347 7.48095 8.15153C7.92274 7.54959 8.56547 7.12573 9.29275 6.95669C10.02 6.78765 10.7838 6.8846 11.4458 7.23L16.5245 2.15C16.7003 1.97443 16.9386 1.87582 17.187 1.87582C17.4355 1.87582 17.6738 1.97443 17.8495 2.15ZM8.74953 10C8.74953 10.3315 8.88123 10.6495 9.11565 10.8839C9.35007 11.1183 9.66801 11.25 9.99953 11.25C10.3311 11.25 10.649 11.1183 10.8834 10.8839C11.1178 10.6495 11.2495 10.3315 11.2495 10C11.2495 9.66848 11.1178 9.35053 10.8834 9.11611C10.649 8.88169 10.3311 8.75 9.99953 8.75C9.66801 8.75 9.35007 8.88169 9.11565 9.11611C8.88123 9.35053 8.74953 9.66848 8.74953 10Z" fill="white"/>
</g>
<defs>
<clipPath id="clip0_1307_761">
<rect width="20" height="20" fill="white"/>
</clipPath>
</defs>
</svg>
