<svg width="26" height="22" viewBox="0 0 26 22" fill="none" xmlns="http://www.w3.org/2000/svg">
<path d="M1.75 6.5V4C1.75 3.33696 2.01339 2.70107 2.48223 2.23223C2.95107 1.76339 3.58696 1.5 4.25 1.5H6.75M1.75 6.5C3.41625 6.5 6.75 5.5 6.75 1.5M1.75 6.5V11.5M6.75 1.5H19.25M1.75 11.5V14C1.75 14.663 2.01339 15.2989 2.48223 15.7678C2.95107 16.2366 3.58696 16.5 4.25 16.5H6.75M1.75 11.5C3.41625 11.5 6.75 12.5 6.75 16.5M24.25 6.5V4C24.25 3.33696 23.9866 2.70107 23.5178 2.23223C23.0489 1.76339 22.413 1.5 21.75 1.5H19.25M24.25 6.5C22.5838 6.5 19.25 5.5 19.25 1.5M24.25 6.5V9M6.75 16.5H11.75" stroke="white" stroke-width="1.66667" stroke-linecap="round" stroke-linejoin="round"/>
<path d="M13 11.5C14.3807 11.5 15.5 10.3807 15.5 9C15.5 7.61929 14.3807 6.5 13 6.5C11.6193 6.5 10.5 7.61929 10.5 9C10.5 10.3807 11.6193 11.5 13 11.5Z" stroke="white" stroke-width="1.66667" stroke-linecap="round" stroke-linejoin="round"/>
<path d="M20.5 12.75V16.5M20.5 16.5V20.25M20.5 16.5H16.75M20.5 16.5H24.25" stroke="white" stroke-width="1.66667" stroke-linecap="round" stroke-linejoin="round"/>
</svg>
