<svg width="10" height="16" viewBox="0 0 10 16" fill="none" xmlns="http://www.w3.org/2000/svg">
<path d="M7.5 1.85156C7.74864 1.85156 7.9871 1.95033 8.16291 2.12615C8.33873 2.30197 8.4375 2.54042 8.4375 2.78906V14.0391C8.4375 14.2877 8.33873 14.5262 8.16291 14.702C7.9871 14.8778 7.74864 14.9766 7.5 14.9766H1.875C1.62636 14.9766 1.3879 14.8778 1.21209 14.702C1.03627 14.5262 0.9375 14.2877 0.9375 14.0391V2.78906C0.9375 2.54042 1.03627 2.30197 1.21209 2.12615C1.3879 1.95033 1.62636 1.85156 1.875 1.85156H7.5ZM1.875 0.914062C1.37772 0.914063 0.900805 1.11161 0.549175 1.46324C0.197544 1.81487 0 2.29178 0 2.78906V14.0391C0 14.5363 0.197544 15.0133 0.549175 15.3649C0.900805 15.7165 1.37772 15.9141 1.875 15.9141H7.5C7.99728 15.9141 8.47419 15.7165 8.82582 15.3649C9.17746 15.0133 9.375 14.5363 9.375 14.0391V2.78906C9.375 2.29178 9.17746 1.81487 8.82582 1.46324C8.47419 1.11161 7.99728 0.914063 7.5 0.914062H1.875Z" fill="white"/>
</svg>
