<svg width="15" height="15" viewBox="0 0 15 15" fill="none" xmlns="http://www.w3.org/2000/svg">
<path d="M2.34375 6.56253C2.21943 6.56253 2.1002 6.51315 2.01229 6.42524C1.92439 6.33733 1.875 6.2181 1.875 6.09378V2.34472C1.875 2.2204 1.92439 2.10117 2.01229 2.01326C2.1002 1.92536 2.21943 1.87597 2.34375 1.87597H6.09375C6.21807 1.87597 6.3373 1.92536 6.42521 2.01326C6.51311 2.10117 6.5625 2.2204 6.5625 2.34472V6.09378C6.5625 6.2181 6.51311 6.33733 6.42521 6.42524C6.3373 6.51315 6.21807 6.56253 6.09375 6.56253H2.34375ZM8.90625 6.56253C8.78193 6.56253 8.6627 6.51315 8.57479 6.42524C8.48689 6.33733 8.4375 6.2181 8.4375 6.09378V2.34472C8.4375 2.2204 8.48689 2.10117 8.57479 2.01326C8.6627 1.92536 8.78193 1.87597 8.90625 1.87597H12.6553C12.7796 1.87597 12.8989 1.92536 12.9868 2.01326C13.0747 2.10117 13.1241 2.2204 13.1241 2.34472V6.09378C13.1241 6.2181 13.0747 6.33733 12.9868 6.42524C12.8989 6.51315 12.7796 6.56253 12.6553 6.56253H8.90625ZM2.34375 13.125C2.21943 13.125 2.1002 13.0756 2.01229 12.9877C1.92439 12.8998 1.875 12.7806 1.875 12.6563V8.90628C1.875 8.78196 1.92439 8.66273 2.01229 8.57483C2.1002 8.48692 2.21943 8.43753 2.34375 8.43753H6.09375C6.21807 8.43753 6.3373 8.48692 6.42521 8.57483C6.51311 8.66273 6.5625 8.78196 6.5625 8.90628V12.6563C6.5625 12.7806 6.51311 12.8998 6.42521 12.9877C6.3373 13.0756 6.21807 13.125 6.09375 13.125H2.34375ZM8.90625 13.125C8.78193 13.125 8.6627 13.0756 8.57479 12.9877C8.48689 12.8998 8.4375 12.7806 8.4375 12.6563V8.90628C8.4375 8.78196 8.48689 8.66273 8.57479 8.57483C8.6627 8.48692 8.78193 8.43753 8.90625 8.43753H12.6553C12.7796 8.43753 12.8989 8.48692 12.9868 8.57483C13.0747 8.66273 13.1241 8.78196 13.1241 8.90628V12.6563C13.1241 12.7806 13.0747 12.8998 12.9868 12.9877C12.8989 13.0756 12.7796 13.125 12.6553 13.125H8.90625Z" fill="#3E56D2"/>
</svg>
