<svg width="20" height="20" viewBox="0 0 20 20" fill="none" xmlns="http://www.w3.org/2000/svg">
<path d="M18.1999 2.88337C17.1081 1.80449 15.6349 1.19946 14.0999 1.19946C12.565 1.19946 11.0918 1.80449 9.99994 2.88337L1.34994 11.525C0.596815 12.3358 0.187389 13.4069 0.207756 14.5133C0.228123 15.6197 0.676696 16.675 1.45915 17.4575C2.2416 18.2399 3.29698 18.6885 4.40335 18.7089C5.50972 18.7292 6.58088 18.3198 7.39161 17.5667L14.4166 10.5417C14.6856 10.2906 14.9013 9.98793 15.0509 9.6517C15.2005 9.31548 15.2808 8.95258 15.2872 8.58464C15.2935 8.2167 15.2257 7.85125 15.0878 7.51007C14.9499 7.16889 14.7448 6.85896 14.4846 6.59875C14.2243 6.33854 13.9144 6.13338 13.5732 5.99549C13.2321 5.8576 12.8666 5.7898 12.4987 5.79614C12.1307 5.80248 11.7678 5.88283 11.4316 6.03239C11.0954 6.18196 10.7927 6.39768 10.5416 6.6667L6.21661 10.9834C6.1385 11.0608 6.0765 11.153 6.0342 11.2546C5.99189 11.3561 5.97011 11.465 5.97011 11.575C5.97011 11.685 5.99189 11.794 6.0342 11.8955C6.0765 11.9971 6.1385 12.0892 6.21661 12.1667C6.37274 12.3219 6.58395 12.409 6.80411 12.409C7.02426 12.409 7.23547 12.3219 7.39161 12.1667L11.7166 7.8417C11.868 7.69324 12.0597 7.59248 12.2678 7.55192C12.476 7.51136 12.6914 7.53277 12.8875 7.61351C13.0836 7.69425 13.2517 7.83077 13.3709 8.00613C13.4902 8.1815 13.5553 8.38799 13.5583 8.60003C13.5568 8.88712 13.4432 9.16226 13.2416 9.3667L6.21661 16.3917C5.85185 16.7554 5.38757 17.0029 4.88231 17.1031C4.37706 17.2033 3.85345 17.1517 3.3775 16.9547C2.90156 16.7577 2.49459 16.4243 2.20791 15.9963C1.92123 15.5684 1.76767 15.0651 1.76661 14.55C1.76111 14.2098 1.82308 13.8719 1.94895 13.5558C2.07482 13.2397 2.26209 12.9517 2.49994 12.7084L11.1749 4.05837C11.9773 3.45658 12.9699 3.16441 13.9703 3.23551C14.9708 3.30661 15.912 3.73621 16.6212 4.44542C17.3304 5.15463 17.76 6.09587 17.8311 7.09633C17.9022 8.09678 17.6101 9.08931 17.0083 9.8917L10.5249 16.375C10.3697 16.5312 10.2826 16.7424 10.2826 16.9625C10.2826 17.1827 10.3697 17.3939 10.5249 17.55C10.6811 17.7052 10.8923 17.7924 11.1124 17.7924C11.3326 17.7924 11.5438 17.7052 11.6999 17.55L18.1833 11.0667C19.2621 9.97481 19.8672 8.50169 19.8672 6.9667C19.8672 5.43171 19.2621 3.95858 18.1833 2.8667L18.1999 2.88337Z" fill="white"/>
</svg>
