<svg width="21" height="21" viewBox="0 0 21 21" fill="none" xmlns="http://www.w3.org/2000/svg">
<path d="M6.91665 10.3959C7.20925 10.6888 7.37361 11.086 7.37361 11.5C7.37361 11.9141 7.20925 12.3112 6.91665 12.6042L5.90207 13.6209H14.6666C15.081 13.6209 15.4785 13.7855 15.7715 14.0785C16.0645 14.3715 16.2291 14.769 16.2291 15.1834C16.2291 15.5978 16.0645 15.9952 15.7715 16.2882C15.4785 16.5812 15.081 16.7459 14.6666 16.7459H5.90207L6.91769 17.7604C7.21081 18.0536 7.37548 18.4511 7.37548 18.8656C7.37548 19.2802 7.21081 19.6777 6.91769 19.9709C6.62457 20.264 6.22702 20.4286 5.81248 20.4286C5.39795 20.4286 5.00039 20.264 4.70727 19.9709L1.02498 16.2875C0.73206 15.9945 0.567505 15.5972 0.567505 15.1828C0.567505 14.7685 0.73206 14.3712 1.02498 14.0781L4.70727 10.3948C4.85238 10.2496 5.02467 10.1344 5.21431 10.0558C5.40394 9.97726 5.60721 9.93681 5.81248 9.93681C6.01776 9.93681 6.22102 9.97726 6.41066 10.0558C6.60029 10.1344 6.77259 10.2496 6.91769 10.3948L6.91665 10.3959ZM14.0833 1.02085C14.3566 0.747308 14.7216 0.584819 15.1078 0.564809C15.494 0.544798 15.8738 0.668688 16.1739 0.912519L16.2927 1.01981L19.975 4.70314C20.2484 4.97658 20.4107 5.34167 20.4305 5.72783C20.4503 6.11399 20.3262 6.49378 20.0823 6.79377L19.975 6.91252L16.2927 10.5959C16.0102 10.8826 15.6279 11.0492 15.2255 11.061C14.8231 11.0728 14.4317 10.9288 14.1329 10.6591C13.8341 10.3894 13.6508 10.0148 13.6214 9.61335C13.592 9.21189 13.7187 8.81456 13.975 8.50419L14.0823 8.38544L15.0979 7.37085H6.33332C5.93005 7.37364 5.54133 7.2204 5.24844 6.94319C4.95555 6.66598 4.78119 6.28626 4.76182 5.88345C4.74244 5.48065 4.87956 5.08595 5.14449 4.78191C5.40942 4.47786 5.78165 4.28803 6.18332 4.2521L6.33332 4.24585H15.0979L14.0823 3.23023C13.9371 3.08512 13.8219 2.91283 13.7433 2.72319C13.6647 2.53356 13.6243 2.33029 13.6243 2.12502C13.6243 1.91974 13.6647 1.71648 13.7433 1.52685C13.8219 1.33721 13.9371 1.16492 14.0823 1.01981L14.0833 1.02085Z" fill="black"/>
</svg>
