<svg width="15" height="13" viewBox="0 0 15 13" fill="none" xmlns="http://www.w3.org/2000/svg">
<path fill-rule="evenodd" clip-rule="evenodd" d="M15.8333 1.66667H2.5C2.27899 1.66667 2.06702 1.75446 1.91074 1.91074C1.75446 2.06702 1.66667 2.27899 1.66667 2.5V14.1667C1.66667 14.3877 1.75446 14.5996 1.91074 14.7559C2.06702 14.9122 2.27899 15 2.5 15H15.8333C16.0543 15 16.2663 14.9122 16.4226 14.7559C16.5789 14.5996 16.6667 14.3877 16.6667 14.1667V2.5C16.6667 2.27899 16.5789 2.06702 16.4226 1.91074C16.2663 1.75446 16.0543 1.66667 15.8333 1.66667ZM2.5 0C1.83696 0 1.20107 0.263392 0.732233 0.732233C0.263392 1.20107 0 1.83696 0 2.5V14.1667C0 14.8297 0.263392 15.4656 0.732233 15.9344C1.20107 16.4033 1.83696 16.6667 2.5 16.6667H15.8333C16.4964 16.6667 17.1323 16.4033 17.6011 15.9344C18.0699 15.4656 18.3333 14.8297 18.3333 14.1667V2.5C18.3333 1.83696 18.0699 1.20107 17.6011 0.732233C17.1323 0.263392 16.4964 0 15.8333 0H2.5ZM4.16667 4.16667H5.83333V5.83333H4.16667V4.16667ZM8.33333 4.16667C8.11232 4.16667 7.90036 4.25446 7.74408 4.41074C7.5878 4.56702 7.5 4.77899 7.5 5C7.5 5.22101 7.5878 5.43297 7.74408 5.58926C7.90036 5.74554 8.11232 5.83333 8.33333 5.83333H13.3333C13.5543 5.83333 13.7663 5.74554 13.9226 5.58926C14.0789 5.43297 14.1667 5.22101 14.1667 5C14.1667 4.77899 14.0789 4.56702 13.9226 4.41074C13.7663 4.25446 13.5543 4.16667 13.3333 4.16667H8.33333ZM5.83333 7.5H4.16667V9.16667H5.83333V7.5ZM7.5 8.33333C7.5 8.11232 7.5878 7.90036 7.74408 7.74408C7.90036 7.5878 8.11232 7.5 8.33333 7.5H13.3333C13.5543 7.5 13.7663 7.5878 13.9226 7.74408C14.0789 7.90036 14.1667 8.11232 14.1667 8.33333C14.1667 8.55435 14.0789 8.76631 13.9226 8.92259C13.7663 9.07887 13.5543 9.16667 13.3333 9.16667H8.33333C8.11232 9.16667 7.90036 9.07887 7.74408 8.92259C7.5878 8.76631 7.5 8.55435 7.5 8.33333ZM5.83333 10.8333H4.16667V12.5H5.83333V10.8333ZM7.5 11.6667C7.5 11.4457 7.5878 11.2337 7.74408 11.0774C7.90036 10.9211 8.11232 10.8333 8.33333 10.8333H13.3333C13.5543 10.8333 13.7663 10.9211 13.9226 11.0774C14.0789 11.2337 14.1667 11.4457 14.1667 11.6667C14.1667 11.8877 14.0789 12.0996 13.9226 12.2559C13.7663 12.4122 13.5543 12.5 13.3333 12.5H8.33333C8.11232 12.5 7.90036 12.4122 7.74408 12.2559C7.5878 12.0996 7.5 11.8877 7.5 11.6667Z" fill="white"/>
</svg>
