<svg width="15" height="14" viewBox="0 0 15 14" fill="none" xmlns="http://www.w3.org/2000/svg">
<path d="M5.625 0.382812L0 6.00781L5.625 11.6328L11.25 6.00781L5.625 0.382812ZM5.625 1.69531L9.9375 6.00781L5.625 10.3203L1.3125 6.00781L5.625 1.69531ZM5.625 3.66406C5.50068 3.66406 5.38145 3.71345 5.29354 3.80136C5.20564 3.88926 5.15625 4.00849 5.15625 4.13281C5.15625 4.25713 5.20564 4.37636 5.29354 4.46427C5.38145 4.55218 5.50068 4.60156 5.625 4.60156C5.74932 4.60156 5.86855 4.55218 5.95646 4.46427C6.04436 4.37636 6.09375 4.25713 6.09375 4.13281C6.09375 4.00849 6.04436 3.88926 5.95646 3.80136C5.86855 3.71345 5.74932 3.66406 5.625 3.66406ZM3.75 5.53906C3.62568 5.53906 3.50645 5.58845 3.41854 5.67636C3.33064 5.76426 3.28125 5.88349 3.28125 6.00781C3.28125 6.13213 3.33064 6.25136 3.41854 6.33927C3.50645 6.42718 3.62568 6.47656 3.75 6.47656C3.87432 6.47656 3.99355 6.42718 4.08146 6.33927C4.16936 6.25136 4.21875 6.13213 4.21875 6.00781C4.21875 5.88349 4.16936 5.76426 4.08146 5.67636C3.99355 5.58845 3.87432 5.53906 3.75 5.53906ZM5.625 5.53906C5.50068 5.53906 5.38145 5.58845 5.29354 5.67636C5.20564 5.76426 5.15625 5.88349 5.15625 6.00781C5.15625 6.13213 5.20564 6.25136 5.29354 6.33927C5.38145 6.42718 5.50068 6.47656 5.625 6.47656C5.74932 6.47656 5.86855 6.42718 5.95646 6.33927C6.04436 6.25136 6.09375 6.13213 6.09375 6.00781C6.09375 5.88349 6.04436 5.76426 5.95646 5.67636C5.86855 5.58845 5.74932 5.53906 5.625 5.53906ZM7.5 5.53906C7.37568 5.53906 7.25645 5.58845 7.16854 5.67636C7.08064 5.76426 7.03125 5.88349 7.03125 6.00781C7.03125 6.13213 7.08064 6.25136 7.16854 6.33927C7.25645 6.42718 7.37568 6.47656 7.5 6.47656C7.62432 6.47656 7.74355 6.42718 7.83146 6.33927C7.91936 6.25136 7.96875 6.13213 7.96875 6.00781C7.96875 5.88349 7.91936 5.76426 7.83146 5.67636C7.74355 5.58845 7.62432 5.53906 7.5 5.53906ZM12.5625 6.00781L11.625 6.94531H14.0625V12.5703H8.4375V10.1328L7.5 11.0703V13.5078H15V6.00781H12.5625ZM5.625 7.41406C5.50068 7.41406 5.38145 7.46345 5.29354 7.55136C5.20564 7.63926 5.15625 7.75849 5.15625 7.88281C5.15625 8.00713 5.20564 8.12636 5.29354 8.21427C5.38145 8.30218 5.50068 8.35156 5.625 8.35156C5.74932 8.35156 5.86855 8.30218 5.95646 8.21427C6.04436 8.12636 6.09375 8.00713 6.09375 7.88281C6.09375 7.75849 6.04436 7.63926 5.95646 7.55136C5.86855 7.46345 5.74932 7.41406 5.625 7.41406ZM11.25 9.28906C11.1257 9.28906 11.0065 9.33845 10.9185 9.42636C10.8306 9.51426 10.7812 9.63349 10.7812 9.75781C10.7812 9.88213 10.8306 10.0014 10.9185 10.0893C11.0065 10.1772 11.1257 10.2266 11.25 10.2266C11.3743 10.2266 11.4935 10.1772 11.5815 10.0893C11.6694 10.0014 11.7188 9.88213 11.7188 9.75781C11.7188 9.63349 11.6694 9.51426 11.5815 9.42636C11.4935 9.33845 11.3743 9.28906 11.25 9.28906Z" fill="white"/>
</svg>
