<svg width="15" height="14" viewBox="0 0 15 14" fill="none" xmlns="http://www.w3.org/2000/svg">
<path d="M5.625 0.46875L0 6.09375L5.625 11.7188L11.25 6.09375L5.625 0.46875ZM5.625 1.78125L9.9375 6.09375L5.625 10.4062L1.3125 6.09375L5.625 1.78125ZM5.625 3.75C5.50068 3.75 5.38145 3.79939 5.29354 3.88729C5.20564 3.9752 5.15625 4.09443 5.15625 4.21875C5.15625 4.34307 5.20564 4.4623 5.29354 4.55021C5.38145 4.63811 5.50068 4.6875 5.625 4.6875C5.74932 4.6875 5.86855 4.63811 5.95646 4.55021C6.04436 4.4623 6.09375 4.34307 6.09375 4.21875C6.09375 4.09443 6.04436 3.9752 5.95646 3.88729C5.86855 3.79939 5.74932 3.75 5.625 3.75ZM3.75 5.625C3.62568 5.625 3.50645 5.67439 3.41854 5.76229C3.33064 5.8502 3.28125 5.96943 3.28125 6.09375C3.28125 6.21807 3.33064 6.3373 3.41854 6.42521C3.50645 6.51311 3.62568 6.5625 3.75 6.5625C3.87432 6.5625 3.99355 6.51311 4.08146 6.42521C4.16936 6.3373 4.21875 6.21807 4.21875 6.09375C4.21875 5.96943 4.16936 5.8502 4.08146 5.76229C3.99355 5.67439 3.87432 5.625 3.75 5.625ZM5.625 5.625C5.50068 5.625 5.38145 5.67439 5.29354 5.76229C5.20564 5.8502 5.15625 5.96943 5.15625 6.09375C5.15625 6.21807 5.20564 6.3373 5.29354 6.42521C5.38145 6.51311 5.50068 6.5625 5.625 6.5625C5.74932 6.5625 5.86855 6.51311 5.95646 6.42521C6.04436 6.3373 6.09375 6.21807 6.09375 6.09375C6.09375 5.96943 6.04436 5.8502 5.95646 5.76229C5.86855 5.67439 5.74932 5.625 5.625 5.625ZM7.5 5.625C7.37568 5.625 7.25645 5.67439 7.16854 5.76229C7.08064 5.8502 7.03125 5.96943 7.03125 6.09375C7.03125 6.21807 7.08064 6.3373 7.16854 6.42521C7.25645 6.51311 7.37568 6.5625 7.5 6.5625C7.62432 6.5625 7.74355 6.51311 7.83146 6.42521C7.91936 6.3373 7.96875 6.21807 7.96875 6.09375C7.96875 5.96943 7.91936 5.8502 7.83146 5.76229C7.74355 5.67439 7.62432 5.625 7.5 5.625ZM12.5625 6.09375L11.625 7.03125H14.0625V12.6562H8.4375V10.2188L7.5 11.1562V13.5938H15V6.09375H12.5625ZM5.625 7.5C5.50068 7.5 5.38145 7.54939 5.29354 7.63729C5.20564 7.7252 5.15625 7.84443 5.15625 7.96875C5.15625 8.09307 5.20564 8.2123 5.29354 8.30021C5.38145 8.38811 5.50068 8.4375 5.625 8.4375C5.74932 8.4375 5.86855 8.38811 5.95646 8.30021C6.04436 8.2123 6.09375 8.09307 6.09375 7.96875C6.09375 7.84443 6.04436 7.7252 5.95646 7.63729C5.86855 7.54939 5.74932 7.5 5.625 7.5ZM11.25 9.375C11.1257 9.375 11.0065 9.42439 10.9185 9.51229C10.8306 9.6002 10.7812 9.71943 10.7812 9.84375C10.7812 9.96807 10.8306 10.0873 10.9185 10.1752C11.0065 10.2631 11.1257 10.3125 11.25 10.3125C11.3743 10.3125 11.4935 10.2631 11.5815 10.1752C11.6694 10.0873 11.7188 9.96807 11.7188 9.84375C11.7188 9.71943 11.6694 9.6002 11.5815 9.51229C11.4935 9.42439 11.3743 9.375 11.25 9.375Z" fill="#1DC1B4"/>
</svg>
