<svg width="13" height="16" viewBox="0 0 13 16" fill="none" xmlns="http://www.w3.org/2000/svg">
<path d="M0.875003 6.53906C0.874974 5.6102 1.10497 4.69578 1.54445 3.87747C1.98394 3.05915 2.61923 2.3624 3.3936 1.84944C4.16798 1.33648 5.05733 1.02326 5.98225 0.937765C6.90717 0.852268 7.83887 0.997149 8.69415 1.35947C9.54944 1.72179 10.3017 2.29028 10.8837 3.01417C11.4658 3.73806 11.8595 4.59482 12.0297 5.50795C12.2 6.42108 12.1414 7.36216 11.8593 8.24715C11.5772 9.13214 11.0804 9.93351 10.4131 10.5797C10.2228 10.7634 10.0766 10.9547 9.98844 11.16L9.27407 12.8184C9.23782 12.9025 9.17775 12.9741 9.10128 13.0244C9.02482 13.0747 8.93529 13.1015 8.84375 13.1016C8.96807 13.1016 9.0873 13.1509 9.17521 13.2389C9.26312 13.3268 9.3125 13.446 9.3125 13.5703C9.3125 13.6946 9.26312 13.8139 9.17521 13.9018C9.0873 13.9897 8.96807 14.0391 8.84375 14.0391C8.96807 14.0391 9.0873 14.0884 9.17521 14.1764C9.26312 14.2643 9.3125 14.3835 9.3125 14.5078C9.3125 14.6321 9.26312 14.7514 9.17521 14.8393C9.0873 14.9272 8.96807 14.9766 8.84375 14.9766L8.63375 15.3956C8.55595 15.5513 8.43634 15.6823 8.28831 15.7739C8.14028 15.8654 7.96969 15.914 7.79563 15.9141H5.20438C5.03032 15.914 4.85972 15.8654 4.7117 15.7739C4.56367 15.6823 4.44406 15.5513 4.36625 15.3956L4.15625 14.9766C4.03193 14.9766 3.9127 14.9272 3.8248 14.8393C3.73689 14.7514 3.6875 14.6321 3.6875 14.5078C3.6875 14.3835 3.73689 14.2643 3.8248 14.1764C3.9127 14.0884 4.03193 14.0391 4.15625 14.0391C4.03193 14.0391 3.9127 13.9897 3.8248 13.9018C3.73689 13.8139 3.6875 13.6946 3.6875 13.5703C3.6875 13.446 3.73689 13.3268 3.8248 13.2389C3.9127 13.1509 4.03193 13.1016 4.15625 13.1016C4.06456 13.1017 3.97483 13.075 3.89818 13.0247C3.82152 12.9743 3.76131 12.9026 3.725 12.8184L3.01157 11.1591C2.90942 10.9399 2.76511 10.7431 2.58688 10.5797C2.04465 10.0558 1.61359 9.42795 1.31947 8.7337C1.02534 8.03946 0.874173 7.29304 0.875003 6.53906ZM6.5 1.85156C5.56641 1.8514 4.65403 2.13003 3.8798 2.65173C3.10557 3.17343 2.50476 3.91444 2.15437 4.77979C1.80398 5.64514 1.71997 6.59541 1.91311 7.5088C2.10625 8.4222 2.56774 9.25712 3.23844 9.90656C3.485 10.1447 3.72032 10.4353 3.87219 10.7888L4.46563 12.1641H8.53625L9.12875 10.7888C9.28063 10.4353 9.51594 10.1447 9.7625 9.90656C10.4333 9.25707 10.8948 8.42206 11.0879 7.50858C11.281 6.59509 11.1969 5.64474 10.8464 4.77935C10.4959 3.91397 9.89494 3.17297 9.12056 2.65134C8.34619 2.12971 7.43368 1.85122 6.5 1.85156Z" fill="white"/>
</svg>
