<svg width="13" height="15" viewBox="0 0 13 15" fill="none" xmlns="http://www.w3.org/2000/svg">
<path d="M0.875003 5.62499C0.874974 4.69613 1.10497 3.78172 1.54445 2.9634C1.98394 2.14508 2.61923 1.44834 3.3936 0.935373C4.16798 0.422409 5.05733 0.109194 5.98225 0.0236973C6.90717 -0.0617999 7.83887 0.0830812 8.69415 0.445404C9.54944 0.807727 10.3017 1.37621 10.8837 2.1001C11.4658 2.82399 11.8595 3.68075 12.0297 4.59388C12.2 5.50701 12.1414 6.44809 11.8593 7.33308C11.5772 8.21808 11.0804 9.01944 10.4131 9.66562C10.2228 9.84937 10.0766 10.0406 9.98844 10.2459L9.27407 11.9044C9.23782 11.9884 9.17775 12.06 9.10128 12.1103C9.02482 12.1606 8.93529 12.1875 8.84375 12.1875C8.96807 12.1875 9.0873 12.2369 9.17521 12.3248C9.26312 12.4127 9.3125 12.5319 9.3125 12.6562C9.3125 12.7806 9.26312 12.8998 9.17521 12.9877C9.0873 13.0756 8.96807 13.125 8.84375 13.125C8.96807 13.125 9.0873 13.1744 9.17521 13.2623C9.26312 13.3502 9.3125 13.4694 9.3125 13.5937C9.3125 13.7181 9.26312 13.8373 9.17521 13.9252C9.0873 14.0131 8.96807 14.0625 8.84375 14.0625L8.63375 14.4816C8.55595 14.6373 8.43634 14.7682 8.28831 14.8598C8.14028 14.9514 7.96969 14.9999 7.79563 15H5.20438C5.03032 14.9999 4.85972 14.9514 4.7117 14.8598C4.56367 14.7682 4.44406 14.6373 4.36625 14.4816L4.15625 14.0625C4.03193 14.0625 3.9127 14.0131 3.8248 13.9252C3.73689 13.8373 3.6875 13.7181 3.6875 13.5937C3.6875 13.4694 3.73689 13.3502 3.8248 13.2623C3.9127 13.1744 4.03193 13.125 4.15625 13.125C4.03193 13.125 3.9127 13.0756 3.8248 12.9877C3.73689 12.8998 3.6875 12.7806 3.6875 12.6562C3.6875 12.5319 3.73689 12.4127 3.8248 12.3248C3.9127 12.2369 4.03193 12.1875 4.15625 12.1875C4.06456 12.1877 3.97483 12.1609 3.89818 12.1106C3.82152 12.0603 3.76131 11.9886 3.725 11.9044L3.01157 10.245C2.90942 10.0259 2.76511 9.82899 2.58688 9.66562C2.04465 9.14171 1.61359 8.51388 1.31947 7.81964C1.02534 7.12539 0.874173 6.37898 0.875003 5.62499ZM6.5 0.937495C5.56641 0.937336 4.65403 1.21596 3.8798 1.73766C3.10557 2.25936 2.50476 3.00037 2.15437 3.86572C1.80398 4.73107 1.71997 5.68134 1.91311 6.59474C2.10625 7.50814 2.56774 8.34306 3.23844 8.99249C3.485 9.23062 3.72032 9.52125 3.87219 9.87468L4.46563 11.25H8.53625L9.12875 9.87468C9.28063 9.52125 9.51594 9.23062 9.7625 8.99249C10.4333 8.343 10.8948 7.508 11.0879 6.59451C11.281 5.68102 11.1969 4.73067 10.8464 3.86529C10.4959 2.9999 9.89494 2.2589 9.12056 1.73727C8.34619 1.21564 7.43368 0.93715 6.5 0.937495Z" fill="#1DC1B4"/>
</svg>
