<svg width="15" height="15" viewBox="0 0 15 15" fill="none" xmlns="http://www.w3.org/2000/svg">
<path d="M3.37243 0.481598C4.14141 -0.28738 5.43856 0.213166 5.52383 1.264L5.52857 1.37453V13.8163C5.52842 14.1205 5.41126 14.4129 5.20139 14.633C4.99151 14.8531 4.705 14.984 4.40122 14.9986C4.09744 15.0132 3.79968 14.9104 3.56965 14.7115C3.33961 14.5125 3.19493 14.2327 3.16558 13.93L3.16005 13.8163V4.04305L2.02317 5.17994C1.80859 5.39529 1.51942 5.51987 1.21552 5.5279C0.911623 5.53592 0.616277 5.42677 0.390636 5.22305C0.164996 5.01932 0.0263421 4.73662 0.00338408 4.43349C-0.0195739 4.13035 0.0749222 3.83 0.267307 3.59461L0.348626 3.50461L3.37243 0.481598ZM9.87084 0C10.1652 1.41311e-05 10.4491 0.109678 10.667 0.307606C10.8849 0.505534 11.0213 0.777535 11.0496 1.07057L11.0551 1.18426V10.9575L12.192 9.82065C12.4066 9.6053 12.6957 9.48071 12.9996 9.47269C13.3035 9.46466 13.5989 9.57381 13.8245 9.77754C14.0502 9.98126 14.1888 10.264 14.2118 10.5671C14.2347 10.8702 14.1402 11.1706 13.9478 11.406L13.8665 11.496L10.8427 14.519C10.0737 15.288 8.77659 14.7874 8.69132 13.7366L8.68658 13.6261V1.18426C8.68658 0.870172 8.81135 0.568952 9.03345 0.346861C9.25554 0.12477 9.55676 0 9.87084 0Z" fill="#1DC1B4"/>
</svg>
