<svg width="15" height="16" viewBox="0 0 15 16" fill="none" xmlns="http://www.w3.org/2000/svg">
<path d="M3.37243 1.39566C4.14141 0.626683 5.43856 1.12723 5.52383 2.17806L5.52857 2.28859V14.7304C5.52842 15.0345 5.41126 15.3269 5.20139 15.547C4.99151 15.7672 4.705 15.8981 4.40122 15.9127C4.09744 15.9273 3.79968 15.8245 3.56965 15.6256C3.33961 15.4266 3.19493 15.1468 3.16558 14.8441L3.16005 14.7304V4.95712L2.02317 6.094C1.80859 6.30935 1.51942 6.43394 1.21552 6.44196C0.911623 6.44999 0.616277 6.34084 0.390636 6.13711C0.164996 5.93338 0.0263421 5.65069 0.00338408 5.34755C-0.0195739 5.04442 0.0749222 4.74406 0.267307 4.50868L0.348626 4.41867L3.37243 1.39566ZM9.87084 0.914062C10.1652 0.914077 10.4491 1.02374 10.667 1.22167C10.8849 1.4196 11.0213 1.6916 11.0496 1.98463L11.0551 2.09832V11.8716L12.192 10.7347C12.4066 10.5194 12.6957 10.3948 12.9996 10.3867C13.3035 10.3787 13.5989 10.4879 13.8245 10.6916C14.0502 10.8953 14.1888 11.178 14.2118 11.4812C14.2347 11.7843 14.1402 12.0846 13.9478 12.32L13.8665 12.41L10.8427 15.4331C10.0737 16.202 8.77659 15.7015 8.69132 14.6507L8.68658 14.5401V2.09832C8.68658 1.78423 8.81135 1.48301 9.03345 1.26092C9.25554 1.03883 9.55676 0.914063 9.87084 0.914062Z" fill="white"/>
</svg>
