<svg width="17" height="17" viewBox="0 0 17 17" fill="none" xmlns="http://www.w3.org/2000/svg">
<path d="M13.4583 2.83332H12.0416V2.12499C12.0416 1.93713 11.967 1.75696 11.8342 1.62412C11.7013 1.49128 11.5212 1.41666 11.3333 1.41666C11.1454 1.41666 10.9653 1.49128 10.8324 1.62412C10.6996 1.75696 10.625 1.93713 10.625 2.12499V2.83332H6.37496V2.12499C6.37496 1.93713 6.30033 1.75696 6.16749 1.62412C6.03466 1.49128 5.85449 1.41666 5.66663 1.41666C5.47876 1.41666 5.2986 1.49128 5.16576 1.62412C5.03292 1.75696 4.95829 1.93713 4.95829 2.12499V2.83332H3.54163C2.97804 2.83332 2.43754 3.05721 2.03902 3.45572C1.64051 3.85424 1.41663 4.39474 1.41663 4.95832V13.4583C1.41663 14.0219 1.64051 14.5624 2.03902 14.9609C2.43754 15.3594 2.97804 15.5833 3.54163 15.5833H13.4583C14.0219 15.5833 14.5624 15.3594 14.9609 14.9609C15.3594 14.5624 15.5833 14.0219 15.5833 13.4583V4.95832C15.5833 4.39474 15.3594 3.85424 14.9609 3.45572C14.5624 3.05721 14.0219 2.83332 13.4583 2.83332ZM14.1666 13.4583C14.1666 13.6462 14.092 13.8264 13.9592 13.9592C13.8263 14.092 13.6462 14.1667 13.4583 14.1667H3.54163C3.35376 14.1667 3.1736 14.092 3.04076 13.9592C2.90792 13.8264 2.83329 13.6462 2.83329 13.4583V8.49999H14.1666V13.4583ZM14.1666 7.08332H2.83329V4.95832C2.83329 4.77046 2.90792 4.59029 3.04076 4.45746C3.1736 4.32462 3.35376 4.24999 3.54163 4.24999H4.95829V4.95832C4.95829 5.14619 5.03292 5.32635 5.16576 5.45919C5.2986 5.59203 5.47876 5.66666 5.66663 5.66666C5.85449 5.66666 6.03466 5.59203 6.16749 5.45919C6.30033 5.32635 6.37496 5.14619 6.37496 4.95832V4.24999H10.625V4.95832C10.625 5.14619 10.6996 5.32635 10.8324 5.45919C10.9653 5.59203 11.1454 5.66666 11.3333 5.66666C11.5212 5.66666 11.7013 5.59203 11.8342 5.45919C11.967 5.32635 12.0416 5.14619 12.0416 4.95832V4.24999H13.4583C13.6462 4.24999 13.8263 4.32462 13.9592 4.45746C14.092 4.59029 14.1666 4.77046 14.1666 4.95832V7.08332Z" fill="#5A5A5B"/>
</svg>
