<svg width="20" height="20" viewBox="0 0 20 20" fill="none" xmlns="http://www.w3.org/2000/svg">
<path d="M17.2727 0H8.18182C7.4585 0 6.76481 0.316071 6.25335 0.87868C5.74188 1.44129 5.45455 2.20435 5.45455 3V10C5.45455 10.7956 5.74188 11.5587 6.25335 12.1213C6.76481 12.6839 7.4585 13 8.18182 13H17.2727C17.996 13 18.6897 12.6839 19.2012 12.1213C19.7127 11.5587 20 10.7956 20 10V3C20 2.20435 19.7127 1.44129 19.2012 0.87868C18.6897 0.316071 17.996 0 17.2727 0ZM18.1818 10C18.1818 10.2652 18.086 10.5196 17.9156 10.7071C17.7451 10.8946 17.5138 11 17.2727 11H8.18182C7.94071 11 7.70948 10.8946 7.53899 10.7071C7.36851 10.5196 7.27273 10.2652 7.27273 10V3C7.27273 2.73478 7.36851 2.48043 7.53899 2.29289C7.70948 2.10536 7.94071 2 8.18182 2H17.2727C17.5138 2 17.7451 2.10536 17.9156 2.29289C18.086 2.48043 18.1818 2.73478 18.1818 3V10ZM15 6C14.6634 6.00125 14.3394 6.14028 14.0909 6.39C13.8954 6.19455 13.6525 6.06577 13.3918 6.0193C13.131 5.97284 12.8636 6.01069 12.622 6.12826C12.3804 6.24582 12.1751 6.43805 12.0309 6.68157C11.8868 6.92509 11.8101 7.20942 11.8101 7.5C11.8101 7.79058 11.8868 8.07491 12.0309 8.31843C12.1751 8.56195 12.3804 8.75418 12.622 8.87174C12.8636 8.98931 13.131 9.02716 13.3918 8.9807C13.6525 8.93423 13.8954 8.80545 14.0909 8.61C14.2551 8.77413 14.4532 8.89172 14.668 8.95258C14.8828 9.01344 15.1079 9.01572 15.3237 8.95923C15.5396 8.90274 15.7396 8.78919 15.9065 8.62842C16.0734 8.46765 16.2021 8.26452 16.2814 8.03664C16.3608 7.80877 16.3884 7.56304 16.3619 7.32076C16.3354 7.07848 16.2556 6.84697 16.1293 6.64632C16.0031 6.44567 15.8342 6.28192 15.6374 6.1693C15.4406 6.05667 15.2218 5.99856 15 6ZM13.6364 15C13.3953 15 13.164 15.1054 12.9935 15.2929C12.8231 15.4804 12.7273 15.7348 12.7273 16V17C12.7273 17.2652 12.6315 17.5196 12.461 17.7071C12.2905 17.8946 12.0593 18 11.8182 18H2.72727C2.48617 18 2.25494 17.8946 2.08445 17.7071C1.91396 17.5196 1.81818 17.2652 1.81818 17V13H2.72727C2.96838 13 3.19961 12.8946 3.3701 12.7071C3.54058 12.5196 3.63636 12.2652 3.63636 12C3.63636 11.7348 3.54058 11.4804 3.3701 11.2929C3.19961 11.1054 2.96838 11 2.72727 11H1.81818V10C1.81818 9.73478 1.91396 9.48043 2.08445 9.29289C2.25494 9.10536 2.48617 9 2.72727 9C2.96838 9 3.19961 8.89464 3.3701 8.70711C3.54058 8.51957 3.63636 8.26522 3.63636 8C3.63636 7.73478 3.54058 7.48043 3.3701 7.29289C3.19961 7.10536 2.96838 7 2.72727 7C2.00396 7 1.31026 7.31607 0.7988 7.87868C0.287337 8.44129 0 9.20435 0 10V17C0 17.7956 0.287337 18.5587 0.7988 19.1213C1.31026 19.6839 2.00396 20 2.72727 20H11.8182C12.5415 20 13.2352 19.6839 13.7467 19.1213C14.2581 18.5587 14.5455 17.7956 14.5455 17V16C14.5455 15.7348 14.4497 15.4804 14.2792 15.2929C14.1087 15.1054 13.8775 15 13.6364 15ZM4.54545 16H5.45455C5.69565 16 5.92688 15.8946 6.09737 15.7071C6.26786 15.5196 6.36364 15.2652 6.36364 15C6.36364 14.7348 6.26786 14.4804 6.09737 14.2929C5.92688 14.1054 5.69565 14 5.45455 14H4.54545C4.30435 14 4.07312 14.1054 3.90263 14.2929C3.73214 14.4804 3.63636 14.7348 3.63636 15C3.63636 15.2652 3.73214 15.5196 3.90263 15.7071C4.07312 15.8946 4.30435 16 4.54545 16Z" fill="white"/>
</svg>
