<svg width="35" height="28" viewBox="0 0 35 28" fill="none" xmlns="http://www.w3.org/2000/svg">
<path d="M22.4999 17.3333V12.3333H27.4999V9L34.1666 14.8333L27.4999 20.6667V17.3333H22.4999ZM20.8333 6.83333V9H0.833252V6.83333L10.8333 0.666664L20.8333 6.83333ZM9.16658 10.6667H12.4999V19H9.16658V10.6667ZM2.49992 10.6667H5.83325V19H2.49992V10.6667ZM19.1666 10.6667V14.8333L15.8333 17.8333V10.6667H19.1666ZM12.6666 20.6667L11.6666 21.5L14.4999 24H0.833252V20.6667H12.6666ZM25.8333 19V24H20.8333V27.3333L14.1666 21.5L20.8333 15.6667V19H25.8333Z" fill="white"/>
</svg>
