<svg width="16" height="15" viewBox="0 0 16 15" fill="none" xmlns="http://www.w3.org/2000/svg">
<path d="M14.0658 1.40331L10.3116 1.40333V0.46889C10.3116 0.209845 10.1018 3.05176e-05 9.84278 3.05176e-05C9.58373 3.05176e-05 9.37392 0.209845 9.37392 0.46889V1.40309H5.62304V0.46889C5.62304 0.209845 5.41322 3.05176e-05 5.15418 3.05176e-05C4.89513 3.05176e-05 4.68532 0.209845 4.68532 0.46889V1.40309H0.93772C0.419864 1.40309 0 1.82296 0 2.34081V14.0623C0 14.5802 0.419864 15 0.93772 15H14.0658C14.5837 15 15.0035 14.5802 15.0035 14.0623V2.34081C15.0035 1.82318 14.5837 1.40331 14.0658 1.40331ZM14.0658 14.0623H0.93772V2.34081H4.68532V2.81319C4.68532 3.07222 4.89513 3.28205 5.15418 3.28205C5.41322 3.28205 5.62304 3.07222 5.62304 2.81319V2.34105H9.37392V2.81342C9.37392 3.07247 9.58373 3.28228 9.84278 3.28228C10.1018 3.28228 10.3116 3.07247 10.3116 2.81342V2.34105H14.0658V14.0623ZM10.7838 7.49849H11.7215C11.9803 7.49849 12.1904 7.28844 12.1904 7.02963V6.09191C12.1904 5.8331 11.9803 5.62305 11.7215 5.62305H10.7838C10.525 5.62305 10.3149 5.8331 10.3149 6.09191V7.02963C10.3149 7.28844 10.525 7.49849 10.7838 7.49849ZM10.7838 11.2491H11.7215C11.9803 11.2491 12.1904 11.0393 12.1904 10.7803V9.84256C12.1904 9.58375 11.9803 9.3737 11.7215 9.3737H10.7838C10.525 9.3737 10.3149 9.58375 10.3149 9.84256V10.7803C10.3149 11.0396 10.525 11.2491 10.7838 11.2491ZM7.97062 9.3737H7.0329C6.77409 9.3737 6.56404 9.58375 6.56404 9.84256V10.7803C6.56404 11.0393 6.77409 11.2491 7.0329 11.2491H7.97062C8.22943 11.2491 8.43948 11.0393 8.43948 10.7803V9.84256C8.43948 9.58398 8.22943 9.3737 7.97062 9.3737ZM7.97062 5.62305H7.0329C6.77409 5.62305 6.56404 5.8331 6.56404 6.09191V7.02963C6.56404 7.28844 6.77409 7.49849 7.0329 7.49849H7.97062C8.22943 7.49849 8.43948 7.28844 8.43948 7.02963V6.09191C8.43948 5.83287 8.22943 5.62305 7.97062 5.62305ZM4.21974 5.62305H3.28202C3.02321 5.62305 2.81316 5.8331 2.81316 6.09191V7.02963C2.81316 7.28844 3.02321 7.49849 3.28202 7.49849H4.21974C4.47855 7.49849 4.6886 7.28844 4.6886 7.02963V6.09191C4.6886 5.83287 4.47855 5.62305 4.21974 5.62305ZM4.21974 9.3737H3.28202C3.02321 9.3737 2.81316 9.58375 2.81316 9.84256V10.7803C2.81316 11.0393 3.02321 11.2491 3.28202 11.2491H4.21974C4.47855 11.2491 4.6886 11.0393 4.6886 10.7803V9.84256C4.6886 9.58398 4.47855 9.3737 4.21974 9.3737Z" fill="#3E56D2"/>
</svg>
