<svg width="18" height="18" viewBox="0 0 18 18" fill="none" xmlns="http://www.w3.org/2000/svg">
<path opacity="0.6" d="M2.80371 11.4881C2.80371 11.4881 2.89943 12.6597 2.92168 13.0291C2.95134 13.5246 3.14278 14.078 3.4623 14.4622C3.91327 15.0069 4.44446 15.199 5.15361 15.2004C5.98746 15.2017 12.051 15.2017 12.8848 15.2004C13.594 15.199 14.1251 15.0069 14.5761 14.4622C14.8956 14.078 15.0871 13.5246 15.1174 13.0291C15.139 12.6597 15.2347 11.4881 15.2347 11.4881" stroke="#707019" stroke-width="1.48571" stroke-linecap="round" stroke-linejoin="round"/>
<path d="M6.6416 4.64763V4.39754C6.6416 3.57514 7.30761 2.90914 8.13 2.90914H9.87052C10.6922 2.90914 11.3589 3.57514 11.3589 4.39754L11.3596 4.64763" stroke="#707019" stroke-width="1.48571" stroke-linecap="round" stroke-linejoin="round"/>
<path d="M9 12.2977V11.4254" stroke="#707019" stroke-width="1.48571" stroke-linecap="round" stroke-linejoin="round"/>
<path fill-rule="evenodd" clip-rule="evenodd" d="M2.7677 6.71002V9.04711C4.06062 9.89984 5.60969 10.4971 7.30976 10.7337C7.51333 9.99152 8.18271 9.44753 8.99634 9.44753C9.79717 9.44753 10.48 9.99152 10.6701 10.7404C12.3769 10.5038 13.9321 9.90658 15.2317 9.04711V6.71002C15.2317 5.56811 14.3129 4.64864 13.171 4.64864H4.83515C3.69323 4.64864 2.7677 5.56811 2.7677 6.71002Z" stroke="#707019" stroke-width="1.48571" stroke-linecap="round" stroke-linejoin="round"/>
</svg>
