<svg width="20" height="20" viewBox="0 0 20 20" fill="none" xmlns="http://www.w3.org/2000/svg">
<path d="M12.7 1.66667H9.455C7.985 1.66667 6.82 1.66667 5.90917 1.79001C4.97083 1.91667 4.21167 2.18334 3.61333 2.78417C3.01417 3.38501 2.74833 4.14751 2.6225 5.08917C2.5 6.00417 2.5 7.17334 2.5 8.64917V13.5142C2.5 14.7708 3.26667 15.8475 4.35583 16.2992C4.3 15.5408 4.3 14.4783 4.3 13.5933V9.41834C4.3 8.35084 4.3 7.43 4.39833 6.69334C4.50417 5.90334 4.7425 5.14667 5.35417 4.53251C5.96583 3.91834 6.72 3.67917 7.50667 3.57251C8.24 3.47417 9.15667 3.47417 10.2208 3.47417H12.7792C13.8425 3.47417 14.7575 3.47417 15.4917 3.57251C15.2717 3.01115 14.8877 2.52908 14.3897 2.18914C13.8917 1.84919 13.3029 1.66712 12.7 1.66667Z" fill="#050017"/>
<path d="M5.5 9.49751C5.5 7.22585 5.5 6.09001 6.20333 5.38418C6.90583 4.67834 8.03667 4.67834 10.3 4.67834H12.7C14.9625 4.67834 16.0942 4.67834 16.7975 5.38418C17.5 6.09001 17.5 7.22585 17.5 9.49751V13.5142C17.5 15.7858 17.5 16.9217 16.7975 17.6275C16.0942 18.3333 14.9625 18.3333 12.7 18.3333H10.3C8.0375 18.3333 6.90583 18.3333 6.20333 17.6275C5.5 16.9217 5.5 15.7858 5.5 13.5142V9.49751Z" fill="#1DC1B4"/>
</svg>
