<svg width="20" height="20" viewBox="0 0 20 20" fill="none" xmlns="http://www.w3.org/2000/svg">
<path d="M18.3334 9.52416V15C18.3334 15.442 18.1578 15.8659 17.8453 16.1785C17.5327 16.4911 17.1088 16.6667 16.6667 16.6667H5.83341C5.39139 16.6667 4.96746 16.4911 4.6549 16.1785C4.34234 15.8659 4.16675 15.442 4.16675 15V13.75M18.3334 9.52416V8.33333C18.3334 7.8913 18.1578 7.46738 17.8453 7.15482C17.5327 6.84226 17.1088 6.66666 16.6667 6.66666H15.8334M18.3334 9.52416H15.8334" stroke="white" stroke-width="1.25" stroke-linecap="round" stroke-linejoin="round"/>
<path d="M15.8334 6.66667V12.0833C15.8334 12.5254 15.6578 12.9493 15.3453 13.2618C15.0327 13.5744 14.6088 13.75 14.1667 13.75H3.33341C2.89139 13.75 2.46746 13.5744 2.1549 13.2618C1.84234 12.9493 1.66675 12.5254 1.66675 12.0833L1.66675 5.41667C1.66675 4.97464 1.84234 4.55072 2.1549 4.23816C2.46746 3.92559 2.89139 3.75 3.33341 3.75L14.1667 3.75C14.6088 3.75 15.0327 3.92559 15.3453 4.23816C15.6578 4.55072 15.8334 4.97464 15.8334 5.41667V6.66667ZM15.8334 6.66667H4.58341" stroke="white" stroke-width="1.25" stroke-linecap="round" stroke-linejoin="round"/>
</svg>
