<svg width="18" height="18" viewBox="0 0 18 18" fill="none" xmlns="http://www.w3.org/2000/svg">
<path d="M8.99199 0.666626C4.39199 0.666626 0.666992 4.39996 0.666992 8.99996C0.666992 13.6 4.39199 17.3333 8.99199 17.3333C13.6003 17.3333 17.3337 13.6 17.3337 8.99996C17.3337 4.39996 13.6003 0.666626 8.99199 0.666626ZM6.08366 5.66663C6.77533 5.66663 7.33366 6.22496 7.33366 6.91663C7.33366 7.60829 6.77533 8.16663 6.08366 8.16663C5.39199 8.16663 4.83366 7.60829 4.83366 6.91663C4.83366 6.22496 5.39199 5.66663 6.08366 5.66663ZM9.00033 14C7.10033 14 5.48366 12.6166 4.83366 10.6666H13.167C12.517 12.6166 10.9003 14 9.00033 14ZM11.917 8.16663C11.2253 8.16663 10.667 7.60829 10.667 6.91663C10.667 6.22496 11.2253 5.66663 11.917 5.66663C12.6087 5.66663 13.167 6.22496 13.167 6.91663C13.167 7.60829 12.6087 8.16663 11.917 8.16663Z" fill="white"/>
</svg>
