<svg width="21" height="30" viewBox="0 0 21 30" fill="none" xmlns="http://www.w3.org/2000/svg">
<path d="M18.25 14.5V8.49375C18.25 4.23125 15.15 0.9375 10.8875 0.9375H10.3063C6.2375 0.9375 2.75 4.23125 2.75 8.49375V14.5H0.8125L1.00625 24.1875C1.00625 24.1875 0.8125 30 10.5 30C20.1875 30 20.1875 24.1875 20.1875 24.1875V14.5H18.25ZM12.4375 26.125H10.5V22.25C9.3375 22.25 8.5625 21.475 8.5625 20.3125C8.5625 19.15 9.3375 18.375 10.5 18.375C11.6625 18.375 12.4375 19.15 12.4375 20.3125V26.125ZM14.375 14.5H6.625V8.49375C6.625 6.3625 8.36875 4.8125 10.3063 4.8125H10.8875C12.825 4.8125 14.375 6.3625 14.375 8.49375V14.5Z" fill="#1DC1B4"/>
</svg>
