<svg width="21" height="21" viewBox="0 0 21 21" fill="none" xmlns="http://www.w3.org/2000/svg">
<g clip-path="url(#clip0_868_2222)">
<path d="M10.25 3.25C16.5 3.25 20.25 10.125 20.25 10.125C20.25 10.125 16.5 17 10.25 17C4 17 0.25 10.125 0.25 10.125C0.25 10.125 4 3.25 10.25 3.25ZM10.25 4.5C5.85 4.5 2.7475 8.56375 1.71875 10.125C2.74625 11.685 5.84875 15.75 10.25 15.75C14.65 15.75 17.7525 11.6862 18.7812 10.125C17.7537 8.565 14.6512 4.5 10.25 4.5ZM10.25 5.75C11.4103 5.75 12.5231 6.21094 13.3436 7.03141C14.1641 7.85188 14.625 8.96468 14.625 10.125C14.625 11.2853 14.1641 12.3981 13.3436 13.2186C12.5231 14.0391 11.4103 14.5 10.25 14.5C9.08968 14.5 7.97688 14.0391 7.15641 13.2186C6.33594 12.3981 5.875 11.2853 5.875 10.125C5.875 8.96468 6.33594 7.85188 7.15641 7.03141C7.97688 6.21094 9.08968 5.75 10.25 5.75ZM10.25 7C9.4215 7.00099 8.62722 7.33055 8.04139 7.91639C7.45555 8.50222 7.12599 9.2965 7.125 10.125C7.125 11.8475 8.52625 13.25 10.25 13.25C11.9738 13.25 13.375 11.8475 13.375 10.125C13.375 8.4025 11.9738 7 10.25 7Z" fill="black"/>
</g>
<defs>
<clipPath id="clip0_868_2222">
<rect width="20" height="20" fill="white" transform="translate(0.25 0.125)"/>
</clipPath>
</defs>
</svg>
