<svg width="40" height="40" viewBox="0 0 40 40" fill="none" xmlns="http://www.w3.org/2000/svg">
<path fill-rule="evenodd" clip-rule="evenodd" d="M20 4.99999C18.3334 4.99999 16.765 5.40666 15.385 6.12582C15.1898 6.2212 14.9651 6.23656 14.7587 6.16864C14.5523 6.10072 14.3806 5.95488 14.2802 5.76221C14.1798 5.56953 14.1586 5.34526 14.2212 5.13719C14.2837 4.92912 14.425 4.7537 14.615 4.64832C16.2777 3.78199 18.1252 3.33082 20 3.33332C22.5717 3.33332 24.9517 4.16666 26.8809 5.57749C26.9701 5.64174 27.0458 5.72303 27.1035 5.81666C27.1612 5.91029 27.1998 6.01442 27.217 6.12304C27.2343 6.23166 27.2299 6.34262 27.2041 6.44952C27.1782 6.55643 27.1315 6.65717 27.0666 6.74592C27.0016 6.83468 26.9197 6.90971 26.8257 6.96667C26.7316 7.02363 26.6271 7.06141 26.5184 7.07783C26.4097 7.09424 26.2987 7.08896 26.192 7.0623C26.0853 7.03564 25.985 6.98813 25.8967 6.92249C24.1862 5.66983 22.1202 4.99627 20 4.99999ZM28.0267 7.67666C28.1129 7.60922 28.2116 7.55944 28.3171 7.53015C28.4225 7.50086 28.5328 7.49263 28.6414 7.50594C28.7501 7.51925 28.855 7.55384 28.9503 7.60772C29.0456 7.66161 29.1293 7.73374 29.1967 7.81999C30.1192 8.9993 30.8054 10.3456 31.2175 11.785C31.2711 11.9951 31.2406 12.2177 31.1327 12.4058C31.0247 12.5938 30.8477 12.7323 30.6393 12.7919C30.4308 12.8516 30.2074 12.8276 30.0163 12.7252C29.8252 12.6228 29.6816 12.4499 29.6159 12.2433C29.2621 11.0101 28.6736 9.85676 27.8825 8.84666C27.8152 8.76038 27.7654 8.66167 27.7362 8.55617C27.707 8.45067 27.6988 8.34044 27.7122 8.23179C27.7256 8.12313 27.7603 8.01818 27.8142 7.92293C27.8682 7.82768 27.9404 7.74399 28.0267 7.67666ZM11.6317 8.06999C11.7211 8.13318 11.7971 8.21336 11.8555 8.30594C11.9139 8.39852 11.9534 8.5017 11.9719 8.60957C11.9904 8.71744 11.9875 8.8279 11.9633 8.93464C11.9391 9.04138 11.8941 9.14231 11.8309 9.23166C10.6365 10.9177 9.99658 12.9338 10 15V25C10 25.221 9.91224 25.433 9.75596 25.5892C9.59968 25.7455 9.38772 25.8333 9.16671 25.8333C8.94569 25.8333 8.73373 25.7455 8.57745 25.5892C8.42117 25.433 8.33337 25.221 8.33337 25V15C8.33337 12.4942 9.12504 10.1708 10.47 8.26832C10.5978 8.08798 10.7919 7.96577 11.0098 7.92858C11.2277 7.89138 11.4514 7.94225 11.6317 8.06999ZM30.8334 14.1667C31.0544 14.1667 31.2664 14.2545 31.4226 14.4107C31.5789 14.567 31.6667 14.779 31.6667 15V25C31.6705 27.724 30.7175 30.3628 28.9742 32.4558C28.8328 32.6258 28.6296 32.7326 28.4094 32.7528C28.1892 32.7729 27.97 32.7048 27.8 32.5633C27.6301 32.4219 27.5233 32.2187 27.5031 31.9985C27.483 31.7783 27.5511 31.5591 27.6925 31.3892C29.1868 29.5957 30.0035 27.3343 30 25V15.0008C30 14.7798 30.0878 14.5678 30.2441 14.4116C30.4004 14.2553 30.6124 14.1667 30.8334 14.1667ZM10.7517 30.7058C10.8402 30.6412 10.9405 30.5947 11.0469 30.569C11.1534 30.5432 11.2638 30.5386 11.372 30.5556C11.4802 30.5725 11.584 30.6107 11.6775 30.6677C11.7709 30.7248 11.8522 30.7998 11.9167 30.8883C13.1229 32.5428 14.8067 33.7884 16.7417 34.4575C17.7902 34.818 18.8913 35.0013 20 35C20.2211 35 20.433 35.0878 20.5893 35.2441C20.7456 35.4003 20.8334 35.6123 20.8334 35.8333C20.8334 36.0543 20.7456 36.2663 20.5893 36.4226C20.433 36.5789 20.2211 36.6667 20 36.6667C18.7065 36.6679 17.4217 36.4539 16.1984 36.0333C13.9412 35.2531 11.9771 33.8005 10.57 31.8708C10.5054 31.7824 10.4589 31.6821 10.433 31.5757C10.4072 31.4693 10.4026 31.3589 10.4194 31.2507C10.4363 31.1425 10.4743 31.0387 10.5313 30.9452C10.5884 30.8517 10.6632 30.7704 10.7517 30.7058ZM26.4809 33.7225C26.5987 33.9094 26.6375 34.1354 26.5888 34.3509C26.54 34.5664 26.4077 34.7537 26.2209 34.8717C25.1347 35.558 23.9421 36.0593 22.6917 36.355C22.5852 36.3802 22.4747 36.3841 22.3667 36.3666C22.2586 36.3491 22.1551 36.3104 22.0619 36.2529C21.9688 36.1954 21.8879 36.1201 21.8239 36.0313C21.7599 35.9425 21.714 35.8419 21.6888 35.7354C21.6636 35.6289 21.6597 35.5184 21.6772 35.4104C21.6947 35.3023 21.7333 35.1988 21.7909 35.1056C21.8484 35.0125 21.9237 34.9316 22.0125 34.8676C22.1013 34.8036 22.2018 34.7577 22.3084 34.7325C23.3796 34.4792 24.4012 34.0497 25.3317 33.4617C25.5186 33.3438 25.7446 33.305 25.9601 33.3537C26.1756 33.4025 26.3629 33.5357 26.4809 33.7225ZM11.6667 15.1958C11.6667 10.6375 15.845 7.49999 20 7.49999C24.155 7.49999 28.3334 10.6375 28.3334 15.1958V23.7867C28.3334 24.5183 28.1917 25.2975 27.7917 25.9217C27.3634 26.59 26.6659 27.0275 25.7417 27.0275C24.8392 27.0275 24.105 26.6108 23.6184 25.9817C23.1442 25.37 22.9167 24.5792 22.9167 23.7867V16.0308C22.919 15.2325 22.6099 14.4648 22.055 13.8908C21.7884 13.6151 21.4691 13.3957 21.1161 13.2455C20.7631 13.0954 20.3836 13.0176 20 13.0167C19.2334 13.0167 18.4942 13.3283 17.945 13.8917C17.3902 14.4656 17.0811 15.2334 17.0834 16.0317V25.7117C17.0834 27.9367 18.1967 29.995 20.69 30.8825C20.8964 30.958 21.0646 31.112 21.158 31.3109C21.2514 31.5099 21.2624 31.7376 21.1887 31.9446C21.1149 32.1517 20.9624 32.3212 20.7643 32.4163C20.5662 32.5114 20.3385 32.5244 20.1309 32.4525C16.8809 31.2958 15.4167 28.5392 15.4167 25.7108V16.0317C15.4145 14.7987 15.8935 13.6135 16.7517 12.7283C17.1736 12.2932 17.6784 11.947 18.2363 11.7103C18.7942 11.4735 19.394 11.351 20 11.35C21.2225 11.35 22.3909 11.8483 23.2484 12.7283C24.1066 13.6135 24.5856 14.7987 24.5834 16.0317V23.7875C24.5834 24.2775 24.7267 24.6908 24.9359 24.9625C25.1325 25.2167 25.3942 25.3617 25.7425 25.3617C26.0692 25.3617 26.2509 25.2367 26.3884 25.0225C26.555 24.7642 26.6667 24.3392 26.6667 23.7875V15.1958C26.6667 11.77 23.4609 9.16666 20 9.16666C16.5392 9.16666 13.3334 11.7692 13.3334 15.1958V25.6533C13.3334 26.5392 13.4659 27.4225 13.7209 28.1617C13.9809 28.9125 14.34 29.4408 14.74 29.7242C14.8293 29.7875 14.9052 29.8678 14.9634 29.9605C15.0216 30.0532 15.061 30.1565 15.0793 30.2644C15.0976 30.3723 15.0944 30.4827 15.07 30.5894C15.0457 30.6961 15.0005 30.797 14.9371 30.8862C14.8738 30.9755 14.7934 31.0514 14.7007 31.1096C14.6081 31.1678 14.5048 31.2072 14.3969 31.2255C14.289 31.2438 14.1785 31.2406 14.0718 31.2162C13.9651 31.1919 13.8643 31.1467 13.775 31.0833C12.9867 30.525 12.4675 29.64 12.145 28.7067C11.8192 27.7625 11.6659 26.6908 11.6659 25.6525V15.1967L11.6667 15.1958Z" fill="#1DC1B4"/>
<path fill-rule="evenodd" clip-rule="evenodd" d="M20.0001 15C20.2211 15 20.4331 15.0878 20.5893 15.2441C20.7456 15.4004 20.8334 15.6123 20.8334 15.8333V23.9892C20.8334 25.8708 21.2901 27.1275 22.0567 27.9167C22.8184 28.7017 24.0234 29.1667 25.8334 29.1667C26.0544 29.1667 26.2664 29.2545 26.4227 29.4107C26.579 29.567 26.6667 29.779 26.6667 30C26.6667 30.221 26.579 30.433 26.4227 30.5893C26.2664 30.7455 26.0544 30.8333 25.8334 30.8333C23.7542 30.8333 22.0426 30.2958 20.8601 29.0775C19.6834 27.8642 19.1667 26.115 19.1667 23.9892V15.8333C19.1667 15.6123 19.2545 15.4004 19.4108 15.2441C19.5671 15.0878 19.7791 15 20.0001 15Z" fill="#1DC1B4"/>
</svg>
