<svg width="14" height="15" viewBox="0 0 14 15" fill="none" xmlns="http://www.w3.org/2000/svg">
<path d="M11.1099 1.8525C11.0499 1.8525 10.9899 1.8375 10.9374 1.8075C9.49737 1.065 8.25237 0.75 6.75987 0.75C5.27487 0.75 3.86487 1.1025 2.58237 1.8075C2.40237 1.905 2.17737 1.8375 2.07237 1.6575C1.97487 1.4775 2.04237 1.245 2.22237 1.1475C3.61737 0.39 5.14737 0 6.75987 0C8.35737 0 9.75237 0.3525 11.2824 1.14C11.4699 1.2375 11.5374 1.4625 11.4399 1.6425C11.3724 1.7775 11.2449 1.8525 11.1099 1.8525ZM0.377369 5.79C0.302369 5.79 0.227369 5.7675 0.159869 5.7225C-0.0126309 5.6025 -0.0501309 5.37 0.069869 5.1975C0.812369 4.1475 1.75737 3.3225 2.88237 2.745C5.23737 1.53 8.25237 1.5225 10.6149 2.7375C11.7399 3.315 12.6849 4.1325 13.4274 5.175C13.5474 5.34 13.5099 5.58 13.3374 5.7C13.1649 5.82 12.9324 5.7825 12.8124 5.61C12.1374 4.665 11.2824 3.9225 10.2699 3.405C8.11737 2.3025 5.36487 2.3025 3.21987 3.4125C2.19987 3.9375 1.34487 4.6875 0.669869 5.6325C0.609869 5.7375 0.497369 5.79 0.377369 5.79ZM5.06487 14.8425C4.96737 14.8425 4.86987 14.805 4.80237 14.73C4.14987 14.0775 3.79737 13.6575 3.29487 12.75C2.77737 11.8275 2.50737 10.7025 2.50737 9.495C2.50737 7.2675 4.41237 5.4525 6.75237 5.4525C9.09237 5.4525 10.9974 7.2675 10.9974 9.495C10.9974 9.705 10.8324 9.87 10.6224 9.87C10.4124 9.87 10.2474 9.705 10.2474 9.495C10.2474 7.68 8.67987 6.2025 6.75237 6.2025C4.82487 6.2025 3.25737 7.68 3.25737 9.495C3.25737 10.575 3.49737 11.5725 3.95487 12.3825C4.43487 13.245 4.76487 13.6125 5.34237 14.1975C5.48487 14.3475 5.48487 14.58 5.34237 14.73C5.25987 14.805 5.16237 14.8425 5.06487 14.8425ZM10.4424 13.455C9.54987 13.455 8.76237 13.23 8.11737 12.7875C6.99987 12.03 6.33237 10.8 6.33237 9.495C6.33237 9.285 6.49737 9.12 6.70737 9.12C6.91737 9.12 7.08237 9.285 7.08237 9.495C7.08237 10.5525 7.62237 11.55 8.53737 12.165C9.06987 12.525 9.69237 12.6975 10.4424 12.6975C10.6224 12.6975 10.9224 12.675 11.2224 12.6225C11.4249 12.585 11.6199 12.72 11.6574 12.93C11.6949 13.1325 11.5599 13.3275 11.3499 13.365C10.9224 13.4475 10.5474 13.455 10.4424 13.455ZM8.93487 15C8.90487 15 8.86737 14.9925 8.83737 14.985C7.64487 14.655 6.86487 14.2125 6.04737 13.41C4.99737 12.3675 4.41987 10.98 4.41987 9.495C4.41987 8.28 5.45487 7.29 6.72987 7.29C8.00487 7.29 9.03987 8.28 9.03987 9.495C9.03987 10.2975 9.73737 10.95 10.5999 10.95C11.4624 10.95 12.1599 10.2975 12.1599 9.495C12.1599 6.6675 9.72237 4.3725 6.72237 4.3725C4.59237 4.3725 2.64237 5.5575 1.76487 7.395C1.47237 8.0025 1.32237 8.715 1.32237 9.495C1.32237 10.08 1.37487 11.0025 1.82487 12.2025C1.89987 12.3975 1.80237 12.615 1.60737 12.6825C1.41237 12.7575 1.19487 12.6525 1.12737 12.465C0.759869 11.4825 0.579869 10.5075 0.579869 9.495C0.579869 8.595 0.752369 7.7775 1.08987 7.065C2.08737 4.9725 4.29987 3.615 6.72237 3.615C10.1349 3.615 12.9099 6.2475 12.9099 9.4875C12.9099 10.7025 11.8749 11.6925 10.5999 11.6925C9.32487 11.6925 8.28987 10.7025 8.28987 9.4875C8.28987 8.685 7.59237 8.0325 6.72987 8.0325C5.86737 8.0325 5.16987 8.685 5.16987 9.4875C5.16987 10.77 5.66487 11.97 6.57237 12.87C7.28487 13.575 7.96737 13.965 9.02487 14.2575C9.22737 14.31 9.33987 14.52 9.28737 14.715C9.24987 14.8875 9.09237 15 8.93487 15Z" fill="black"/>
</svg>
