<svg width="15" height="15" viewBox="0 0 15 15" fill="none" xmlns="http://www.w3.org/2000/svg">
<g clip-path="url(#clip0_197_1197)">
<path d="M7.5001 10.7357V11.8179M7.5001 5.36786V6.375M7.5001 14.4536C11.2501 14.4536 13.9287 13.125 13.9287 10.1679C13.9287 6.95357 12.3215 4.81071 9.10725 3.20357L10.3715 1.575C10.4358 1.46815 10.4706 1.34621 10.4725 1.22156C10.4744 1.0969 10.4434 0.973951 10.3824 0.865175C10.3215 0.756399 10.2329 0.66566 10.1257 0.602156C10.0184 0.538653 9.8962 0.504642 9.77153 0.503571H5.22868C5.10401 0.504642 4.98184 0.538653 4.87456 0.602156C4.76727 0.66566 4.67868 0.756399 4.61777 0.865175C4.55685 0.973951 4.52578 1.0969 4.52769 1.22156C4.52961 1.34621 4.56445 1.46815 4.62868 1.575L5.89296 3.21429C2.67868 4.83214 1.07153 6.975 1.07153 10.1893C1.07153 13.125 3.7501 14.4536 7.5001 14.4536Z" stroke="white" stroke-width="1.42857" stroke-linecap="round" stroke-linejoin="round"/>
<path d="M6.42867 10.2429C6.5594 10.3981 6.72394 10.5212 6.90967 10.6029C7.09539 10.6847 7.29737 10.7228 7.5001 10.7143C7.80996 10.7354 8.11595 10.6356 8.35372 10.4358C8.5915 10.236 8.74254 9.95174 8.7751 9.64287C8.74254 9.334 8.5915 9.04978 8.35372 8.84997C8.11595 8.65016 7.80996 8.55032 7.5001 8.57144C7.19023 8.59257 6.88425 8.49273 6.64647 8.29292C6.4087 8.0931 6.25766 7.80889 6.2251 7.50001C6.25504 7.19006 6.40535 6.90421 6.64375 6.70388C6.88215 6.50354 7.18962 6.4047 7.5001 6.42859C7.69926 6.4164 7.89865 6.44852 8.08391 6.52262C8.26918 6.59673 8.43571 6.71098 8.57153 6.85716" stroke="white" stroke-width="1.42857" stroke-linecap="round" stroke-linejoin="round"/>
</g>
<defs>
<clipPath id="clip0_197_1197">
<rect width="15" height="15" fill="white"/>
</clipPath>
</defs>
</svg>
