<svg width="20" height="20" viewBox="0 0 20 20" fill="none" xmlns="http://www.w3.org/2000/svg">
<path fill-rule="evenodd" clip-rule="evenodd" d="M9.45281 0.645319C5.81625 0.871569 3.91594 2.93094 3.75 6.65501H7.41844C7.46438 5.36501 8.18437 4.40063 9.525 4.25844C10.8409 4.11876 12.0894 4.43219 12.4675 5.33188C12.8759 6.30376 11.9591 7.43313 11.5231 7.90719C10.7162 8.78626 9.40562 9.42751 8.72625 10.3759C8.06031 11.3053 7.94187 12.5281 7.89062 14.0247H11.1238C11.1691 13.0678 11.2328 12.1513 11.6681 11.5566C12.3763 10.5903 13.4338 10.1375 14.32 9.37438C15.1666 8.64501 16.0572 7.76594 16.2084 6.40532C16.6625 2.33313 13.3384 0.402819 9.45281 0.645319Z" fill="#F8F8F8"/>
<path d="M9.53588 19.375C10.6632 19.375 11.5771 18.4749 11.5771 17.3647C11.5771 16.2544 10.6632 15.3544 9.53588 15.3544C8.40853 15.3544 7.49463 16.2544 7.49463 17.3647C7.49463 18.4749 8.40853 19.375 9.53588 19.375Z" fill="#F8F8F8"/>
</svg>
