<svg width="26" height="24" viewBox="0 0 26 24" fill="none" xmlns="http://www.w3.org/2000/svg">
<path d="M21.6666 19V10.5C21.6666 10.3448 21.6274 10.1916 21.5522 10.0528C21.477 9.91393 21.3678 9.79315 21.2333 9.7L13.6499 4.45C13.4624 4.32018 13.2343 4.25 12.9999 4.25C12.7655 4.25 12.5374 4.32018 12.3499 4.45L4.76659 9.7C4.63204 9.79315 4.52284 9.91393 4.44762 10.0528C4.37241 10.1916 4.33325 10.3448 4.33325 10.5V19C4.33325 19.2652 4.44739 19.5196 4.65055 19.7071C4.85372 19.8946 5.12927 20 5.41659 20H9.74992C10.0372 20 10.3128 19.8946 10.516 19.7071C10.7191 19.5196 10.8333 19.2652 10.8333 19V16C10.8333 15.7348 10.9474 15.4804 11.1506 15.2929C11.3537 15.1054 11.6293 15 11.9166 15H14.0833C14.3706 15 14.6461 15.1054 14.8493 15.2929C15.0524 15.4804 15.1666 15.7348 15.1666 16V19C15.1666 19.2652 15.2807 19.5196 15.4839 19.7071C15.687 19.8946 15.9626 20 16.2499 20H20.5833C20.8706 20 21.1461 19.8946 21.3493 19.7071C21.5524 19.5196 21.6666 19.2652 21.6666 19Z" fill="black" fill-opacity="0.85" stroke="black" stroke-opacity="0.85" stroke-width="1.66667" stroke-linecap="round" stroke-linejoin="round"/>
</svg>
