<svg width="16" height="15" viewBox="0 0 16 15" fill="none" xmlns="http://www.w3.org/2000/svg">
<path d="M5.25099 11.2493C5.10263 11.2493 4.95759 11.2933 4.83423 11.3757C4.71087 11.4581 4.61473 11.5753 4.55795 11.7124C4.50117 11.8494 4.48632 12.0003 4.51526 12.1458C4.54421 12.2913 4.61565 12.425 4.72056 12.5299C4.82547 12.6348 4.95913 12.7062 5.10464 12.7352C5.25016 12.7641 5.40099 12.7493 5.53806 12.6925C5.67513 12.6357 5.79228 12.5396 5.87471 12.4162C5.95714 12.2928 6.00113 12.1478 6.00113 11.9994C6.00113 11.8005 5.9221 11.6097 5.78142 11.469C5.64074 11.3283 5.44994 11.2493 5.25099 11.2493ZM3.00057 11.2493C2.8522 11.2493 2.70717 11.2933 2.58381 11.3757C2.46045 11.4581 2.3643 11.5753 2.30753 11.7124C2.25075 11.8494 2.23589 12.0003 2.26484 12.1458C2.29378 12.2913 2.36523 12.425 2.47014 12.5299C2.57504 12.6348 2.70871 12.7062 2.85422 12.7352C2.99973 12.7641 3.15056 12.7493 3.28763 12.6925C3.4247 12.6357 3.54186 12.5396 3.62429 12.4162C3.70671 12.2928 3.75071 12.1478 3.75071 11.9994C3.75071 11.8005 3.67167 11.6097 3.531 11.469C3.39032 11.3283 3.19952 11.2493 3.00057 11.2493ZM7.50141 11.2493C7.35305 11.2493 7.20802 11.2933 7.08466 11.3757C6.9613 11.4581 6.86515 11.5753 6.80837 11.7124C6.7516 11.8494 6.73674 12.0003 6.76569 12.1458C6.79463 12.2913 6.86608 12.425 6.97098 12.5299C7.07589 12.6348 7.20956 12.7062 7.35507 12.7352C7.50058 12.7641 7.65141 12.7493 7.78848 12.6925C7.92555 12.6357 8.04271 12.5396 8.12513 12.4162C8.20756 12.2928 8.25156 12.1478 8.25156 11.9994C8.25156 11.8005 8.17252 11.6097 8.03185 11.469C7.89117 11.3283 7.70036 11.2493 7.50141 11.2493ZM9.82685 4.87309C9.89279 4.75942 9.98744 4.66506 10.1013 4.59947C10.2152 4.53387 10.3443 4.49935 10.4757 4.49935C10.6071 4.49935 10.7363 4.53387 10.8501 4.59947C10.964 4.66506 11.0587 4.75942 11.1246 4.87309C11.2236 5.04467 11.3864 5.17015 11.5775 5.22215C11.7686 5.27415 11.9725 5.24844 12.1448 5.15064C12.2333 5.1042 12.3116 5.04055 12.3751 4.96342C12.4387 4.88629 12.4862 4.79725 12.5148 4.70151C12.5435 4.60577 12.5527 4.50528 12.542 4.40593C12.5312 4.30657 12.5008 4.21036 12.4523 4.12295C12.255 3.78016 11.9708 3.49544 11.6284 3.29746C11.286 3.09948 10.8975 2.99523 10.502 2.99523C10.1065 2.99523 9.71792 3.09948 9.37552 3.29746C9.03311 3.49544 8.74893 3.78016 8.55161 4.12295C8.48828 4.28864 8.4857 4.47141 8.54435 4.63882C8.603 4.80623 8.71908 4.94743 8.87197 5.03737C9.02486 5.12731 9.20468 5.16015 9.37949 5.13008C9.55431 5.1 9.71281 5.00895 9.82685 4.87309ZM15.0778 2.62267C14.6168 1.82518 13.954 1.16303 13.1561 0.702683C12.3582 0.242337 11.4532 0 10.532 0C9.6108 0 8.70582 0.242337 7.9079 0.702683C7.10999 1.16303 6.44722 1.82518 5.98613 2.62267C5.93653 2.70828 5.90436 2.80287 5.89147 2.90097C5.87858 2.99907 5.88523 3.09875 5.91102 3.19428C5.93682 3.2898 5.98126 3.37928 6.04179 3.45755C6.10231 3.53583 6.17772 3.60135 6.26368 3.65036C6.3669 3.70913 6.48259 3.74256 6.60124 3.74788C6.73343 3.7484 6.8634 3.71399 6.97801 3.64813C7.09261 3.58226 7.18778 3.48728 7.25387 3.37281C7.58307 2.80267 8.05655 2.32923 8.62671 2.00007C9.19687 1.67091 9.84363 1.49762 10.502 1.49762C11.1603 1.49762 11.8071 1.67091 12.3773 2.00007C12.9474 2.32923 13.4209 2.80267 13.7501 3.37281C13.7991 3.45877 13.8646 3.53418 13.9429 3.5947C14.0212 3.65523 14.1107 3.69967 14.2062 3.72547C14.3017 3.75126 14.4014 3.75791 14.4995 3.74502C14.5976 3.73213 14.6922 3.69996 14.7778 3.65036C14.8656 3.60327 14.9432 3.53914 15.006 3.46172C15.0688 3.3843 15.1155 3.29515 15.1434 3.19947C15.1714 3.10379 15.18 3.0035 15.1687 2.90447C15.1574 2.80543 15.1265 2.70963 15.0778 2.62267ZM12.0023 8.99887H11.2521V6.74845C11.2521 6.5495 11.1731 6.35869 11.0324 6.21801C10.8917 6.07734 10.7009 5.9983 10.502 5.9983C10.303 5.9983 10.1122 6.07734 9.97155 6.21801C9.83087 6.35869 9.75184 6.5495 9.75184 6.74845V8.99887H2.25042C1.65357 8.99887 1.08117 9.23597 0.659134 9.658C0.237098 10.08 0 10.6524 0 11.2493V12.7496C0 13.3464 0.237098 13.9188 0.659134 14.3409C1.08117 14.7629 1.65357 15 2.25042 15H12.0023C12.5991 15 13.1715 14.7629 13.5936 14.3409C14.0156 13.9188 14.2527 13.3464 14.2527 12.7496V11.2493C14.2527 10.6524 14.0156 10.08 13.5936 9.658C13.1715 9.23597 12.5991 8.99887 12.0023 8.99887ZM12.7524 12.7496C12.7524 12.9485 12.6734 13.1393 12.5327 13.28C12.392 13.4207 12.2012 13.4997 12.0023 13.4997H2.25042C2.05147 13.4997 1.86067 13.4207 1.71999 13.28C1.57932 13.1393 1.50028 12.9485 1.50028 12.7496V11.2493C1.50028 11.0503 1.57932 10.8595 1.71999 10.7189C1.86067 10.5782 2.05147 10.4992 2.25042 10.4992H12.0023C12.2012 10.4992 12.392 10.5782 12.5327 10.7189C12.6734 10.8595 12.7524 11.0503 12.7524 11.2493V12.7496Z" fill="#1DC1B4"/>
</svg>
