<svg width="16" height="16" viewBox="0 0 16 16" fill="none" xmlns="http://www.w3.org/2000/svg">
<path d="M5.25099 12.1634C5.10263 12.1634 4.95759 12.2073 4.83423 12.2898C4.71087 12.3722 4.61473 12.4894 4.55795 12.6264C4.50117 12.7635 4.48632 12.9143 4.51526 13.0598C4.54421 13.2054 4.61565 13.339 4.72056 13.4439C4.82547 13.5488 4.95913 13.6203 5.10464 13.6492C5.25016 13.6782 5.40099 13.6633 5.53806 13.6065C5.67513 13.5498 5.79228 13.4536 5.87471 13.3303C5.95714 13.2069 6.00113 13.0619 6.00113 12.9135C6.00113 12.7145 5.9221 12.5237 5.78142 12.3831C5.64074 12.2424 5.44994 12.1634 5.25099 12.1634ZM3.00057 12.1634C2.8522 12.1634 2.70717 12.2073 2.58381 12.2898C2.46045 12.3722 2.3643 12.4894 2.30753 12.6264C2.25075 12.7635 2.23589 12.9143 2.26484 13.0598C2.29378 13.2054 2.36523 13.339 2.47014 13.4439C2.57504 13.5488 2.70871 13.6203 2.85422 13.6492C2.99973 13.6782 3.15056 13.6633 3.28763 13.6065C3.4247 13.5498 3.54186 13.4536 3.62429 13.3303C3.70671 13.2069 3.75071 13.0619 3.75071 12.9135C3.75071 12.7145 3.67167 12.5237 3.531 12.3831C3.39032 12.2424 3.19952 12.1634 3.00057 12.1634ZM7.50141 12.1634C7.35305 12.1634 7.20802 12.2073 7.08466 12.2898C6.9613 12.3722 6.86515 12.4894 6.80837 12.6264C6.7516 12.7635 6.73674 12.9143 6.76569 13.0598C6.79463 13.2054 6.86608 13.339 6.97098 13.4439C7.07589 13.5488 7.20956 13.6203 7.35507 13.6492C7.50058 13.6782 7.65141 13.6633 7.78848 13.6065C7.92555 13.5498 8.04271 13.4536 8.12513 13.3303C8.20756 13.2069 8.25156 13.0619 8.25156 12.9135C8.25156 12.7145 8.17252 12.5237 8.03185 12.3831C7.89117 12.2424 7.70036 12.1634 7.50141 12.1634ZM9.82685 5.78715C9.89279 5.67348 9.98744 5.57912 10.1013 5.51353C10.2152 5.44794 10.3443 5.41341 10.4757 5.41341C10.6071 5.41341 10.7363 5.44794 10.8501 5.51353C10.964 5.57912 11.0587 5.67348 11.1246 5.78715C11.2236 5.95873 11.3864 6.08421 11.5775 6.13621C11.7686 6.18821 11.9725 6.1625 12.1448 6.06471C12.2333 6.01826 12.3116 5.95461 12.3751 5.87748C12.4387 5.80035 12.4862 5.71131 12.5148 5.61557C12.5435 5.51984 12.5527 5.41934 12.542 5.31999C12.5312 5.22064 12.5008 5.12443 12.4523 5.03701C12.255 4.69423 11.9708 4.4095 11.6284 4.21152C11.286 4.01354 10.8975 3.9093 10.502 3.9093C10.1065 3.9093 9.71792 4.01354 9.37552 4.21152C9.03311 4.4095 8.74893 4.69423 8.55161 5.03701C8.48828 5.2027 8.4857 5.38548 8.54435 5.55288C8.603 5.72029 8.71908 5.8615 8.87197 5.95143C9.02486 6.04137 9.20468 6.07422 9.37949 6.04414C9.55431 6.01407 9.71281 5.92302 9.82685 5.78715ZM15.0778 3.53673C14.6168 2.73924 13.954 2.07709 13.1561 1.61675C12.3582 1.1564 11.4532 0.914062 10.532 0.914062C9.6108 0.914063 8.70582 1.1564 7.9079 1.61675C7.10999 2.07709 6.44722 2.73924 5.98613 3.53673C5.93653 3.62235 5.90436 3.71693 5.89147 3.81503C5.87858 3.91313 5.88523 4.01282 5.91102 4.10834C5.93682 4.20386 5.98126 4.29334 6.04179 4.37161C6.10231 4.44989 6.17772 4.51542 6.26368 4.56442C6.3669 4.6232 6.48259 4.65662 6.60124 4.66194C6.73343 4.66247 6.8634 4.62805 6.97801 4.56219C7.09261 4.49632 7.18778 4.40135 7.25387 4.28687C7.58307 3.71674 8.05655 3.2433 8.62671 2.91413C9.19687 2.58497 9.84363 2.41168 10.502 2.41168C11.1603 2.41168 11.8071 2.58497 12.3773 2.91413C12.9474 3.2433 13.4209 3.71674 13.7501 4.28687C13.7991 4.37283 13.8646 4.44824 13.9429 4.50876C14.0212 4.56929 14.1107 4.61373 14.2062 4.63953C14.3017 4.66533 14.4014 4.67197 14.4995 4.65908C14.5976 4.64619 14.6922 4.61402 14.7778 4.56442C14.8656 4.51733 14.9432 4.4532 15.006 4.37578C15.0688 4.29837 15.1155 4.20921 15.1434 4.11353C15.1714 4.01785 15.18 3.91756 15.1687 3.81853C15.1574 3.71949 15.1265 3.62369 15.0778 3.53673ZM12.0023 9.91293H11.2521V7.66251C11.2521 7.46356 11.1731 7.27276 11.0324 7.13208C10.8917 6.9914 10.7009 6.91237 10.502 6.91237C10.303 6.91237 10.1122 6.9914 9.97155 7.13208C9.83087 7.27276 9.75184 7.46356 9.75184 7.66251V9.91293H2.25042C1.65357 9.91293 1.08117 10.15 0.659134 10.5721C0.237098 10.9941 0 11.5665 0 12.1634V13.6636C0 14.2605 0.237098 14.8329 0.659134 15.2549C1.08117 15.677 1.65357 15.9141 2.25042 15.9141H12.0023C12.5991 15.9141 13.1715 15.677 13.5936 15.2549C14.0156 14.8329 14.2527 14.2605 14.2527 13.6636V12.1634C14.2527 11.5665 14.0156 10.9941 13.5936 10.5721C13.1715 10.15 12.5991 9.91293 12.0023 9.91293ZM12.7524 13.6636C12.7524 13.8626 12.6734 14.0534 12.5327 14.1941C12.392 14.3347 12.2012 14.4138 12.0023 14.4138H2.25042C2.05147 14.4138 1.86067 14.3347 1.71999 14.1941C1.57932 14.0534 1.50028 13.8626 1.50028 13.6636V12.1634C1.50028 11.9644 1.57932 11.7736 1.71999 11.6329C1.86067 11.4922 2.05147 11.4132 2.25042 11.4132H12.0023C12.2012 11.4132 12.392 11.4922 12.5327 11.6329C12.6734 11.7736 12.7524 11.9644 12.7524 12.1634V13.6636Z" fill="white"/>
</svg>
