<svg width="18" height="19" viewBox="0 0 18 19" fill="none" xmlns="http://www.w3.org/2000/svg">
<g clip-path="url(#clip0_361_207)">
<path d="M9.4875 8C8.8725 6.2525 7.2075 5 5.25 5C2.7675 5 0.75 7.0175 0.75 9.5C0.75 11.9825 2.7675 14 5.25 14C7.2075 14 8.8725 12.7475 9.4875 11H12.75V14H15.75V11H17.25V8H9.4875ZM5.25 11C4.425 11 3.75 10.325 3.75 9.5C3.75 8.675 4.425 8 5.25 8C6.075 8 6.75 8.675 6.75 9.5C6.75 10.325 6.075 11 5.25 11Z" fill="black"/>
</g>
<defs>
<clipPath id="clip0_361_207">
<rect width="18" height="18" fill="white" transform="translate(0 0.5)"/>
</clipPath>
</defs>
</svg>
