<svg width="24" height="24" viewBox="0 0 24 24" fill="none" xmlns="http://www.w3.org/2000/svg">
<path d="M15.7995 15.5003C16.7198 14.9888 16.6005 13.0178 15.534 11.0948C15.0765 10.2668 14.514 9.59626 13.9515 9.12751C13.2789 9.6267 12.4642 9.89741 11.6266 9.90001C10.7877 9.89816 9.97147 9.62741 9.2978 9.12751C8.7353 9.59626 8.1743 10.2675 7.7153 11.0948C6.64805 13.017 6.5303 14.9888 7.4528 15.5003C7.8638 15.7343 8.2973 15.5588 8.7443 15.1283C8.66062 15.5921 8.6187 16.0625 8.61905 16.5338C8.61905 18.7373 9.47405 20.5178 10.5263 20.5178C11.1608 20.5178 11.4751 19.869 11.6258 18.8768C11.7758 19.8623 12.0908 20.5178 12.7208 20.5178C13.7686 20.5178 14.6303 18.7365 14.6303 16.5338C14.6303 16.0388 14.5838 15.5663 14.5043 15.129C14.9543 15.5603 15.3863 15.7388 15.7988 15.5018L15.7995 15.5003ZM11.6251 9.15001C12.0506 9.15637 12.4731 9.07803 12.8681 8.91955C13.263 8.76107 13.6225 8.52561 13.9256 8.22689C14.2288 7.92817 14.4694 7.57214 14.6337 7.17953C14.7979 6.78692 14.8824 6.36557 14.8822 5.94C14.8821 5.51443 14.7973 5.09313 14.6328 4.70064C14.4683 4.30814 14.2274 3.95229 13.924 3.65378C13.6207 3.35527 13.2611 3.12007 12.866 2.96186C12.4709 2.80366 12.0483 2.72561 11.6228 2.73226C10.7803 2.74544 9.97669 3.08946 9.38563 3.69005C8.79456 4.29064 8.46343 5.0996 8.46372 5.94225C8.46402 6.7849 8.79572 7.59363 9.3872 8.1938C9.97869 8.79397 10.7825 9.13743 11.6251 9.15001ZM18.0705 11.1855C18.7559 11.1655 19.4065 10.8792 19.8842 10.3873C20.3618 9.89544 20.6291 9.23678 20.6291 8.55114C20.6291 7.86549 20.3618 7.20684 19.8842 6.71498C19.4065 6.22313 18.7559 5.9368 18.0705 5.91676C17.3717 5.91686 16.7015 6.19459 16.2073 6.68884C15.7132 7.18309 15.4357 7.85339 15.4358 8.55226C15.4359 9.25114 15.7136 9.92136 16.2079 10.4155C16.7021 10.9096 17.3724 11.1871 18.0713 11.187L18.0705 11.1855ZM21.2806 12.783C20.9041 12.102 20.4436 11.5515 19.9816 11.1668C19.4289 11.5762 18.7598 11.7983 18.0721 11.8005C17.5051 11.8005 16.977 11.6453 16.515 11.388C16.887 12.2078 17.1173 13.038 17.16 13.7805C17.2305 14.9175 16.875 15.7605 16.164 16.1543C16.0117 16.238 15.846 16.2948 15.6743 16.3223C15.6315 16.6163 15.6023 16.9223 15.6023 17.2448C15.6023 19.0545 16.3035 20.5163 17.1683 20.5163C17.6888 20.5163 17.9483 19.9838 18.0713 19.1693C18.1935 19.9793 18.4523 20.5163 18.9713 20.5163C19.83 20.5163 20.5388 19.0538 20.5388 17.2463C20.5388 16.839 20.4991 16.4513 20.4338 16.0913C20.8028 16.446 21.1583 16.5923 21.4973 16.3973C22.2526 15.9773 22.155 14.3588 21.2798 12.7823L21.2806 12.783ZM5.17955 11.1855C5.70044 11.1852 6.20955 11.0305 6.64251 10.7409C7.07547 10.4513 7.41285 10.0398 7.61198 9.55846C7.81111 9.07714 7.86306 8.54757 7.76126 8.03673C7.65945 7.52588 7.40847 7.05669 7.04004 6.68847C6.67161 6.32024 6.20227 6.06953 5.69137 5.96802C5.18046 5.86651 4.65093 5.91875 4.16972 6.11816C3.6885 6.31757 3.27722 6.65517 2.98785 7.0883C2.69849 7.52143 2.54405 8.03062 2.54405 8.55152C2.54425 9.25043 2.82198 9.92067 3.31619 10.4149C3.8104 10.9091 4.48063 11.1868 5.17955 11.187V11.1855ZM7.0808 16.152C5.8868 15.4883 5.7773 13.509 6.7388 11.3865C6.26354 11.6563 5.7268 11.7992 5.1803 11.8013C4.4633 11.8013 3.8063 11.5613 3.2678 11.1668C2.80655 11.5508 2.3468 12.1013 1.9688 12.7815C1.09355 14.3595 0.99755 15.978 1.75355 16.3965C2.09105 16.59 2.4473 16.4453 2.81405 16.092C2.74669 16.4728 2.71281 16.8588 2.7128 17.2455C2.7128 19.0545 3.41405 20.5155 4.2788 20.5155C4.7993 20.5155 5.0588 19.983 5.1818 19.1693C5.30555 19.9793 5.5643 20.5163 6.0818 20.5163C6.94205 20.5163 7.6493 19.0538 7.6493 17.2463C7.6493 16.9215 7.6193 16.6148 7.57655 16.3208C7.40297 16.2934 7.23547 16.236 7.08155 16.1513L7.0808 16.152Z" fill="#F8F8F8"/>
</svg>
