<svg width="30" height="30" viewBox="0 0 30 30" fill="none" xmlns="http://www.w3.org/2000/svg">
<path d="M15 21.4714V23.6357M15 10.7357V12.75M15 28.9071C22.5 28.9071 27.8571 26.25 27.8571 20.3357C27.8571 13.9071 24.6428 9.62143 18.2142 6.40714L20.7428 3.15C20.8713 2.93629 20.941 2.69242 20.9448 2.44311C20.9486 2.1938 20.8865 1.9479 20.7646 1.73035C20.6428 1.5128 20.4656 1.33132 20.2511 1.20431C20.0365 1.07731 19.7922 1.00928 19.5428 1.00714H10.4571C10.2078 1.00928 9.96344 1.07731 9.74887 1.20431C9.5343 1.33132 9.35712 1.5128 9.23529 1.73035C9.11346 1.9479 9.05131 2.1938 9.05514 2.44311C9.05897 2.69242 9.12865 2.93629 9.25711 3.15L11.7857 6.42857C5.35711 9.66428 2.14282 13.95 2.14282 20.3786C2.14282 26.25 7.49996 28.9071 15 28.9071Z" stroke="white" stroke-width="1.42857" stroke-linecap="round" stroke-linejoin="round"/>
<path d="M12.8571 20.4857C13.1186 20.7961 13.4476 21.0424 13.8191 21.2059C14.1905 21.3693 14.5945 21.4455 15 21.4286C15.6197 21.4708 16.2316 21.2711 16.7072 20.8715C17.1827 20.4719 17.4848 19.9035 17.55 19.2857C17.4848 18.668 17.1827 18.0995 16.7072 17.6999C16.2316 17.3003 15.6197 17.1006 15 17.1429C14.3802 17.1851 13.7683 16.9854 13.2927 16.5858C12.8172 16.1862 12.5151 15.6177 12.45 15C12.5098 14.3801 12.8105 13.8084 13.2873 13.4077C13.7641 13.0071 14.379 12.8094 15 12.8571C15.3983 12.8328 15.7971 12.897 16.1676 13.0452C16.5381 13.1934 16.8712 13.4219 17.1428 13.7143" stroke="white" stroke-width="1.42857" stroke-linecap="round" stroke-linejoin="round"/>
</svg>
