<svg width="14" height="18" viewBox="0 0 14 18" fill="none" xmlns="http://www.w3.org/2000/svg">
<path id="Vector" d="M1.66667 17.5C1.20833 17.5 0.815835 17.3367 0.489168 17.01C0.162501 16.6833 -0.000554141 16.2911 1.41483e-06 15.8333V7.5C1.41483e-06 7.04167 0.163335 6.64917 0.490001 6.3225C0.816668 5.99583 1.20889 5.83278 1.66667 5.83333H2.5V4.16667C2.5 3.01389 2.90639 2.03111 3.71917 1.21833C4.53195 0.405556 5.51445 -0.000554986 6.66667 5.69217e-07C7.81945 5.69217e-07 8.80222 0.40639 9.615 1.21917C10.4278 2.03195 10.8339 3.01445 10.8333 4.16667V5.83333H11.6667C12.125 5.83333 12.5175 5.99667 12.8442 6.32333C13.1708 6.65 13.3339 7.04222 13.3333 7.5V15.8333C13.3333 16.2917 13.17 16.6842 12.8433 17.0108C12.5167 17.3375 12.1244 17.5006 11.6667 17.5H1.66667ZM1.66667 15.8333H11.6667V7.5H1.66667V15.8333ZM6.66667 13.3333C7.125 13.3333 7.5175 13.17 7.84417 12.8433C8.17083 12.5167 8.33389 12.1244 8.33333 11.6667C8.33333 11.2083 8.17 10.8158 7.84333 10.4892C7.51667 10.1625 7.12445 9.99945 6.66667 10C6.20833 10 5.81583 10.1633 5.48917 10.49C5.1625 10.8167 4.99945 11.2089 5 11.6667C5 12.125 5.16333 12.5175 5.49 12.8442C5.81667 13.1708 6.20889 13.3339 6.66667 13.3333ZM4.16667 5.83333H9.16667V4.16667C9.16667 3.47222 8.92361 2.88195 8.4375 2.39583C7.95139 1.90972 7.36111 1.66667 6.66667 1.66667C5.97222 1.66667 5.38195 1.90972 4.89583 2.39583C4.40972 2.88195 4.16667 3.47222 4.16667 4.16667V5.83333Z" fill="#FF5E03"/>
</svg>
