<svg width="20" height="20" viewBox="0 0 20 20" fill="none" xmlns="http://www.w3.org/2000/svg">
<path d="M8.66682 14.667H7.3335V5.33371H11.3335C11.687 5.33406 12.0259 5.47465 12.2759 5.72462C12.5259 5.97459 12.6665 6.31352 12.6668 6.66704V10.0004C12.6665 10.3539 12.5259 10.6928 12.2759 10.9428C12.0259 11.1927 11.687 11.3333 11.3335 11.3337H8.66682V14.667ZM8.66682 10.0004H11.3335V6.6657H8.66682V10.0004Z" fill="#1DC1B4"/>
<path d="M19.6096 10.943C19.8596 10.693 20 10.3539 20 10.0003C20 9.64678 19.8596 9.30771 19.6096 9.05767L15.7516 5.19969L17.685 3.2917C17.9701 3.36269 18.2708 3.33758 18.5402 3.22026C18.8096 3.10294 19.0328 2.89998 19.1751 2.64286C19.3174 2.38575 19.3709 2.08885 19.3272 1.79825C19.2836 1.50764 19.1452 1.23957 18.9336 1.03563C18.722 0.831687 18.4491 0.703277 18.157 0.670324C17.865 0.637371 17.5703 0.701716 17.3186 0.853375C17.0669 1.00504 16.8723 1.23553 16.7649 1.5091C16.6576 1.78266 16.6435 2.08401 16.725 2.36637L14.809 4.25703L10.943 0.39038C10.693 0.14042 10.3539 0 10.0003 0C9.64678 0 9.30771 0.14042 9.05767 0.39038L5.19969 4.24969L3.2917 2.31504C3.36232 2.02981 3.33684 1.72924 3.2192 1.45997C3.10157 1.1907 2.89836 0.967775 2.6411 0.825782C2.38384 0.683789 2.08691 0.630664 1.79638 0.674648C1.50584 0.718633 1.23795 0.857268 1.03424 1.06905C0.830543 1.28083 0.702426 1.55391 0.669767 1.84593C0.637108 2.13796 0.701734 2.4326 0.853619 2.68414C1.0055 2.93569 1.23616 3.13008 1.5098 3.23716C1.78344 3.34424 2.08477 3.35802 2.36704 3.27637L4.25703 5.19169L0.39038 9.05767C0.14042 9.30771 0 9.64678 0 10.0003C0 10.3539 0.14042 10.693 0.39038 10.943L4.25703 14.809L2.36704 16.7243C2.08536 16.6432 1.78479 16.6572 1.51191 16.7643C1.23904 16.8713 1.00909 17.0654 0.857724 17.3164C0.706356 17.5674 0.642016 17.8614 0.674679 18.1527C0.707342 18.444 0.835183 18.7164 1.03839 18.9276C1.24159 19.1389 1.50881 19.2772 1.79862 19.3212C2.08843 19.3652 2.38465 19.3123 2.64136 19.1708C2.89807 19.0293 3.10094 18.8071 3.21852 18.5386C3.3361 18.27 3.36182 17.9702 3.2917 17.6856L5.19969 15.7523L9.05767 19.6096C9.30771 19.8596 9.64678 20 10.0003 20C10.3539 20 10.693 19.8596 10.943 19.6096L14.8096 15.7436L16.7243 17.6343C16.6432 17.916 16.6572 18.2165 16.7643 18.4894C16.8713 18.7623 17.0654 18.9922 17.3164 19.1436C17.5674 19.295 17.8614 19.3593 18.1527 19.3267C18.444 19.294 18.7164 19.1662 18.9276 18.9629C19.1389 18.7597 19.2772 18.4925 19.3212 18.2027C19.3652 17.9129 19.3123 17.6167 19.1708 17.36C19.0293 17.1033 18.8071 16.9004 18.5386 16.7828C18.27 16.6652 17.9702 16.6395 17.6856 16.7096L15.7523 14.801L19.6096 10.943ZM10.0003 18.667L1.33371 10.0003L10.0003 1.33371L18.667 10.0003L10.0003 18.667Z" fill="#1DC1B4"/>
</svg>
