<svg width="46" height="35" viewBox="0 0 46 35" fill="none" xmlns="http://www.w3.org/2000/svg">
<g clip-path="url(#clip0_948_1855)">
<path d="M8.18673 34.826V32.5095C8.18673 31.6213 7.64608 31.0423 6.71937 31.0423C6.25611 31.0423 5.75415 31.1967 5.40661 31.6987C5.13646 31.274 4.7504 31.0423 4.17123 31.0423C3.785 31.0423 3.39912 31.158 3.0901 31.5828V31.1195H2.2793V34.826H3.0901V32.7797C3.0901 32.1235 3.43764 31.8144 3.97829 31.8144C4.51859 31.8144 4.7891 32.162 4.7891 32.7797V34.826H5.5999V32.7797C5.5999 32.1235 5.98578 31.8144 6.48774 31.8144C7.02839 31.8144 7.29854 32.162 7.29854 32.7797V34.826H8.18673ZM20.1942 31.1195H18.8816V29.9999H18.0708V31.1195H17.3372V31.8529H18.0706V33.5519C18.0706 34.4014 18.4182 34.9032 19.3449 34.9032C19.6924 34.9032 20.0783 34.7875 20.3488 34.6331L20.117 33.938C19.8854 34.0924 19.6152 34.1311 19.4221 34.1311C19.036 34.1311 18.8816 33.8995 18.8816 33.5132V31.8529H20.1942V31.1195ZM27.0669 31.0421C26.6036 31.0421 26.2948 31.274 26.1016 31.5828V31.1195H25.2908V34.826H26.1016V32.7411C26.1016 32.1234 26.3718 31.7759 26.8737 31.7759C27.0282 31.7759 27.2213 31.8146 27.3757 31.8531L27.6073 31.081C27.4529 31.0423 27.2213 31.0421 27.0669 31.0421ZM16.6808 31.4284C16.2946 31.158 15.7541 31.0423 15.175 31.0423C14.2484 31.0423 13.6307 31.5056 13.6307 32.2392C13.6307 32.857 14.094 33.2044 14.9048 33.3203L15.2909 33.359C15.7156 33.436 15.9472 33.5519 15.9472 33.7451C15.9472 34.0152 15.6384 34.2083 15.0977 34.2083C14.5573 34.2083 14.1325 34.0152 13.8622 33.8223L13.4761 34.44C13.9009 34.7488 14.4801 34.9032 15.059 34.9032C16.1402 34.9032 16.758 34.4014 16.758 33.7064C16.758 33.05 16.2561 32.7024 15.4838 32.5867L15.0977 32.548C14.7502 32.5093 14.4801 32.4323 14.4801 32.2007C14.4801 31.9303 14.7502 31.7759 15.175 31.7759C15.6384 31.7759 16.1017 31.9689 16.3333 32.0848L16.6808 31.4284ZM38.2252 31.0423C37.7617 31.0423 37.4529 31.274 37.2598 31.5828V31.1195H36.449V34.826H37.2598V32.7411C37.2598 32.1234 37.5301 31.7759 38.0319 31.7759C38.1865 31.7759 38.3796 31.8146 38.534 31.8531L38.7657 31.081C38.6112 31.0423 38.3796 31.0423 38.2252 31.0423ZM27.8777 32.9728C27.8777 34.0924 28.6498 34.9032 29.8468 34.9032C30.3873 34.9032 30.7733 34.7875 31.1594 34.4786L30.7733 33.8223C30.4645 34.0539 30.1557 34.1696 29.8081 34.1696C29.1517 34.1696 28.6885 33.7064 28.6885 32.9728C28.6885 32.2779 29.1517 31.8144 29.8081 31.7759C30.1557 31.7759 30.4645 31.8916 30.7733 32.1234L31.1594 31.4671C30.7733 31.158 30.3873 31.0423 29.8468 31.0423C28.6498 31.0423 27.8777 31.8531 27.8777 32.9728ZM35.368 32.9728V31.1195H34.5572V31.5828C34.2869 31.2354 33.9008 31.0423 33.3989 31.0423C32.3564 31.0423 31.5456 31.8531 31.5456 32.9728C31.5456 34.0924 32.3564 34.9032 33.3989 34.9032C33.9394 34.9032 34.3256 34.7103 34.5572 34.3627V34.826H35.368V32.9728ZM32.395 32.9728C32.395 32.3164 32.8197 31.7759 33.5146 31.7759C34.171 31.7759 34.6344 32.2779 34.6344 32.9728C34.6344 33.6292 34.171 34.1696 33.5146 34.1696C32.8197 34.1309 32.395 33.6292 32.395 32.9728ZM22.704 31.0423C21.6229 31.0423 20.8506 31.8144 20.8506 32.9728C20.8506 34.1311 21.6227 34.9032 22.7425 34.9032C23.283 34.9032 23.8236 34.7488 24.2484 34.4014L23.8622 33.8223C23.5533 34.0539 23.1673 34.2083 22.7812 34.2083C22.2792 34.2083 21.7773 33.9767 21.6614 33.3201H24.4028V33.0115C24.4415 31.8144 23.7466 31.0423 22.704 31.0423ZM22.704 31.7372C23.2058 31.7372 23.5535 32.0462 23.6305 32.6254H21.7001C21.7773 32.1234 22.1248 31.7372 22.704 31.7372ZM42.8197 32.9728V29.6523H42.0089V31.5828C41.7385 31.2354 41.3525 31.0423 40.8505 31.0423C39.8081 31.0423 38.9973 31.8531 38.9973 32.9728C38.9973 34.0924 39.8081 34.9032 40.8505 34.9032C41.3912 34.9032 41.7772 34.7103 42.0089 34.3627V34.826H42.8197V32.9728ZM39.8468 32.9728C39.8468 32.3164 40.2714 31.7759 40.9664 31.7759C41.6228 31.7759 42.0861 32.2779 42.0861 32.9728C42.0861 33.6292 41.6228 34.1696 40.9664 34.1696C40.2714 34.1309 39.8468 33.6292 39.8468 32.9728ZM12.7425 32.9728V31.1195H11.9317V31.5828C11.6614 31.2354 11.2754 31.0423 10.7734 31.0423C9.73096 31.0423 8.92015 31.8531 8.92015 32.9728C8.92015 34.0924 9.73096 34.9032 10.7734 34.9032C11.314 34.9032 11.7001 34.7103 11.9317 34.3627V34.826H12.7425V32.9728ZM9.73096 32.9728C9.73096 32.3164 10.1557 31.7759 10.8506 31.7759C11.507 31.7759 11.9704 32.2779 11.9704 32.9728C11.9704 33.6292 11.507 34.1696 10.8506 34.1696C10.1557 34.1309 9.73096 33.6292 9.73096 32.9728Z" fill="white"/>
<path d="M16.4102 2.9729H28.5722V24.8261H16.4102V2.9729Z" fill="#FF5F00"/>
<path d="M17.1825 13.8996C17.1825 9.4595 19.2673 5.52121 22.4719 2.97289C20.1168 1.11965 17.1439 0 13.9007 0C6.21708 0 0.000976562 6.2161 0.000976562 13.8996C0.000976562 21.5829 6.21708 27.7991 13.9005 27.7991C17.1438 27.7991 20.1167 26.6795 22.4719 24.8261C19.2673 22.3165 17.1825 18.3396 17.1825 13.8996Z" fill="#EB001B"/>
<path d="M44.9816 13.8996C44.9816 21.5829 38.7655 27.7991 31.082 27.7991C27.8388 27.7991 24.8659 26.6795 22.5107 24.8261C25.754 22.2779 27.8003 18.3396 27.8003 13.8996C27.8003 9.4595 25.7153 5.52121 22.5107 2.97289C24.8658 1.11965 27.8388 0 31.082 0C38.7655 0 44.9816 6.2548 44.9816 13.8996Z" fill="#F79E1B"/>
</g>
<defs>
<clipPath id="clip0_948_1855">
<rect width="45.0275" height="35" fill="white"/>
</clipPath>
</defs>
</svg>
