<svg width="20" height="20" viewBox="0 0 20 20" fill="none" xmlns="http://www.w3.org/2000/svg">
<path d="M3.33337 7.5H5.00004V2.5H6.66671L9.51671 7.5H13.3334V2.5H15V7.5H16.6667V9.16667H15V10.8333H16.6667V12.5H15V17.5H13.3334L10.475 12.5H6.66671V17.5H5.00004V12.5H3.33337V10.8333H5.00004V9.16667H3.33337V7.5ZM6.66671 7.5H7.60837L6.66671 5.85833V7.5ZM6.66671 9.16667V10.8333H9.51671L8.56671 9.16667H6.66671ZM13.3334 14.1667V12.5H12.375L13.3334 14.1667ZM10.4667 9.16667L11.425 10.8333H13.3334V9.16667H10.4667Z" fill="white"/>
</svg>
