<svg width="24" height="24" viewBox="0 0 24 24" fill="none" xmlns="http://www.w3.org/2000/svg">
<path d="M5.99998 14.4C7.32546 14.4 8.39998 13.3255 8.39998 12C8.39998 10.6745 7.32546 9.60001 5.99998 9.60001C4.67449 9.60001 3.59998 10.6745 3.59998 12C3.59998 13.3255 4.67449 14.4 5.99998 14.4Z" fill="#F8F8F8"/>
<path d="M12.0001 14.4C13.3256 14.4 14.4001 13.3255 14.4001 12C14.4001 10.6745 13.3256 9.60001 12.0001 9.60001C10.6746 9.60001 9.6001 10.6745 9.6001 12C9.6001 13.3255 10.6746 14.4 12.0001 14.4Z" fill="#F8F8F8"/>
<path d="M18.0001 14.4C19.3256 14.4 20.4001 13.3255 20.4001 12C20.4001 10.6745 19.3256 9.60001 18.0001 9.60001C16.6746 9.60001 15.6001 10.6745 15.6001 12C15.6001 13.3255 16.6746 14.4 18.0001 14.4Z" fill="#F8F8F8"/>
</svg>
