<svg width="28" height="25" viewBox="0 0 28 25" fill="none" xmlns="http://www.w3.org/2000/svg">
<path d="M26.25 0H1.25C0.918479 0 0.600537 0.131696 0.366116 0.366116C0.131696 0.600537 0 0.918479 0 1.25V11.25C0 11.5815 0.131696 11.8995 0.366116 12.1339C0.600537 12.3683 0.918479 12.5 1.25 12.5H5V23.75C5 24.0815 5.1317 24.3995 5.36612 24.6339C5.60054 24.8683 5.91848 25 6.25 25H21.25C21.5815 25 21.8995 24.8683 22.1339 24.6339C22.3683 24.3995 22.5 24.0815 22.5 23.75V12.5H26.25C26.5815 12.5 26.8995 12.3683 27.1339 12.1339C27.3683 11.8995 27.5 11.5815 27.5 11.25V1.25C27.5 0.918479 27.3683 0.600537 27.1339 0.366116C26.8995 0.131696 26.5815 0 26.25 0ZM7.5 22.5V20C8.16304 20 8.79892 20.2634 9.26777 20.7322C9.73661 21.2011 10 21.837 10 22.5H7.5ZM20 22.5H17.5C17.5 21.837 17.7634 21.2011 18.2322 20.7322C18.7011 20.2634 19.337 20 20 20V22.5ZM20 17.5C18.6739 17.5 17.4021 18.0268 16.4645 18.9645C15.5268 19.9021 15 21.1739 15 22.5H12.5C12.5 21.1739 11.9732 19.9021 11.0355 18.9645C10.0979 18.0268 8.82608 17.5 7.5 17.5V7.5H20V17.5ZM25 10H22.5V6.25C22.5 5.91848 22.3683 5.60054 22.1339 5.36612C21.8995 5.1317 21.5815 5 21.25 5H6.25C5.91848 5 5.60054 5.1317 5.36612 5.36612C5.1317 5.60054 5 5.91848 5 6.25V10H2.5V2.5H25V10ZM13.75 16.25C14.4917 16.25 15.2167 16.0301 15.8334 15.618C16.4501 15.206 16.9307 14.6203 17.2145 13.9351C17.4984 13.2498 17.5726 12.4958 17.4279 11.7684C17.2832 11.041 16.9261 10.3728 16.4016 9.84835C15.8772 9.3239 15.209 8.96675 14.4816 8.82205C13.7542 8.67736 13.0002 8.75162 12.3149 9.03545C11.6297 9.31928 11.044 9.79993 10.632 10.4166C10.2199 11.0333 10 11.7583 10 12.5C10 13.4946 10.3951 14.4484 11.0983 15.1517C11.8016 15.8549 12.7554 16.25 13.75 16.25ZM13.75 11.25C13.9972 11.25 14.2389 11.3233 14.4445 11.4607C14.65 11.598 14.8102 11.7932 14.9048 12.0216C14.9995 12.2501 15.0242 12.5014 14.976 12.7439C14.9277 12.9863 14.8087 13.2091 14.6339 13.3839C14.4591 13.5587 14.2363 13.6778 13.9939 13.726C13.7514 13.7742 13.5001 13.7495 13.2716 13.6549C13.0432 13.5602 12.848 13.4 12.7107 13.1945C12.5733 12.9889 12.5 12.7472 12.5 12.5C12.5 12.1685 12.6317 11.8505 12.8661 11.6161C13.1005 11.3817 13.4185 11.25 13.75 11.25Z" fill="white"/>
</svg>
