<svg width="23" height="23" viewBox="0 0 23 23" fill="none" xmlns="http://www.w3.org/2000/svg">
<path d="M9.25002 13.75L21.625 1.375M9.25002 13.75L13.1875 21.625C13.2369 21.7327 13.3161 21.824 13.4158 21.888C13.5155 21.952 13.6315 21.986 13.75 21.986C13.8685 21.986 13.9845 21.952 14.0842 21.888C14.1839 21.824 14.2632 21.7327 14.3125 21.625L21.625 1.375M9.25002 13.75L1.37502 9.8125C1.26731 9.76314 1.17604 9.6839 1.11204 9.58418C1.04805 9.48447 1.01404 9.36848 1.01404 9.25C1.01404 9.13152 1.04805 9.01553 1.11204 8.91582C1.17604 8.8161 1.26731 8.73686 1.37502 8.6875L21.625 1.375" stroke="black" stroke-width="1.66667" stroke-linecap="round" stroke-linejoin="round"/>
</svg>
