<svg width="30" height="35" viewBox="0 0 30 35" fill="none" xmlns="http://www.w3.org/2000/svg">
<g clip-path="url(#clip0_944_1091)">
<path d="M25.1742 2.72423C23.5593 0.883605 20.6402 0.0944824 16.9057 0.0944824H6.06732C5.69783 0.0944961 5.34047 0.226316 5.05948 0.466244C4.77848 0.706171 4.5923 1.03847 4.53439 1.40339L0.0214767 30.0254C-0.0682253 30.5898 0.368811 31.1009 0.940864 31.1009H7.63212L9.31259 20.442L9.26043 20.7758C9.38015 20.0223 10.0245 19.4666 10.7876 19.4666H13.9672C20.2137 19.4666 25.1048 16.9295 26.5335 9.59003C26.5759 9.37296 26.6127 9.16168 26.6444 8.95528C26.4641 8.85978 26.4641 8.85978 26.6444 8.95528C27.0699 6.24255 26.6415 4.39601 25.1742 2.72423Z" fill="#27346A"/>
<path d="M11.8729 7.97806C12.0558 7.89095 12.2559 7.84582 12.4585 7.84594H20.9557C21.9618 7.84594 22.9004 7.91142 23.758 8.04945C23.9979 8.08771 24.2367 8.1334 24.4738 8.18644C24.81 8.26061 25.1422 8.35139 25.4694 8.45844C25.891 8.59925 26.2836 8.76324 26.6445 8.95528C27.0699 6.2415 26.6415 4.39601 25.1742 2.72423C23.5584 0.883605 20.6402 0.0944824 16.9057 0.0944824H6.06639C5.30323 0.0944824 4.65399 0.650078 4.53439 1.40339L0.0214773 30.0243C-0.0682246 30.5897 0.368812 31.1001 0.939938 31.1001H7.63212L11.1186 8.99097C11.1528 8.77366 11.2394 8.56793 11.3708 8.39148C11.5022 8.21503 11.6745 8.07316 11.8729 7.97806Z" fill="#27346A"/>
<path d="M26.5329 9.59007C25.1042 16.9285 20.2132 19.4667 13.9666 19.4667H10.7861C10.023 19.4667 9.37852 20.0224 9.25996 20.7758L7.16935 34.0289C7.09123 34.5228 7.47322 34.9704 7.97295 34.9704H13.6135C13.9366 34.9703 14.2491 34.855 14.4948 34.6451C14.7404 34.4352 14.9031 34.1445 14.9536 33.8254L15.0085 33.538L16.0716 26.8003L16.1401 26.428C16.1906 26.1089 16.3533 25.8182 16.5989 25.6083C16.8446 25.3984 17.157 25.2831 17.4801 25.2829H18.3243C23.7883 25.2829 28.0668 23.0631 29.317 16.643C29.8389 13.9601 29.5689 11.7201 28.1884 10.1467C27.7696 9.67016 27.2496 9.27658 26.6438 8.95532C26.611 9.16277 26.5755 9.373 26.5329 9.59007Z" fill="#2790C3"/>
<path d="M25.1485 8.35925C24.9258 8.29419 24.7009 8.2366 24.4743 8.18656C24.237 8.13439 23.9983 8.08902 23.7584 8.0505C22.8998 7.91155 21.962 7.84595 20.9549 7.84595H12.4588C12.2561 7.84549 12.0559 7.89102 11.8732 7.97911C11.6746 8.07392 11.5021 8.21571 11.3706 8.39221C11.2392 8.56871 11.1527 8.77459 11.1188 8.99203L9.3129 20.4421L9.26074 20.7759C9.37953 20.0225 10.0239 19.4668 10.7871 19.4668H13.9677C20.2141 19.4668 25.1051 16.9296 26.5338 9.59016C26.5764 9.37309 26.612 9.16274 26.6448 8.9554C26.283 8.76441 25.8914 8.59938 25.4697 8.45949C25.3633 8.42422 25.2562 8.39079 25.1487 8.35925" fill="#1F264F"/>
</g>
<defs>
<clipPath id="clip0_944_1091">
<rect width="29.68" height="35" fill="white"/>
</clipPath>
</defs>
</svg>
