<svg width="15" height="16" viewBox="0 0 15 16" fill="none" xmlns="http://www.w3.org/2000/svg">
<path d="M10.3475 8.98032L10.0631 9.26344C10.0631 9.26344 9.38625 9.93594 7.53938 8.09969C5.6925 6.26344 6.36938 5.59094 6.36938 5.59094L6.54813 5.41219C6.99 4.97344 7.03188 4.26844 6.64625 3.75344L5.85875 2.70156C5.38125 2.06406 4.45938 1.97969 3.9125 2.52344L2.93125 3.49844C2.66063 3.76844 2.47938 4.11719 2.50125 4.50469C2.5575 5.49656 3.00625 7.62969 5.50875 10.1184C8.16313 12.7572 10.6538 12.8622 11.6719 12.7672C11.9944 12.7372 12.2744 12.5734 12.5 12.3484L13.3875 11.4659C13.9875 10.8703 13.8188 9.84844 13.0513 9.43157L11.8575 8.78219C11.3538 8.50844 10.7413 8.58907 10.3475 8.98032Z" fill="white"/>
</svg>
