<svg width="21" height="21" viewBox="0 0 21 21" fill="none" xmlns="http://www.w3.org/2000/svg">
<path d="M4.0835 15.875C4.0835 14.991 4.43469 14.1431 5.05981 13.518C5.68493 12.8929 6.53277 12.5417 7.41683 12.5417H14.0835C14.9676 12.5417 15.8154 12.8929 16.4405 13.518C17.0656 14.1431 17.4168 14.991 17.4168 15.875C17.4168 16.317 17.2412 16.741 16.9287 17.0535C16.6161 17.3661 16.1922 17.5417 15.7502 17.5417H5.75016C5.30814 17.5417 4.88421 17.3661 4.57165 17.0535C4.25909 16.741 4.0835 16.317 4.0835 15.875Z" stroke="black" stroke-opacity="0.6" stroke-width="1.66667" stroke-linejoin="round"/>
<path d="M10.75 9.20834C12.1307 9.20834 13.25 8.08905 13.25 6.70834C13.25 5.32762 12.1307 4.20834 10.75 4.20834C9.36929 4.20834 8.25 5.32762 8.25 6.70834C8.25 8.08905 9.36929 9.20834 10.75 9.20834Z" stroke="black" stroke-opacity="0.6" stroke-width="1.66667"/>
</svg>
