<svg width="90" height="90" viewBox="0 0 90 90" fill="none" xmlns="http://www.w3.org/2000/svg">
<circle cx="45" cy="45" r="40" fill="white"/>
<path fill-rule="evenodd" clip-rule="evenodd" d="M45 3.75C22.2187 3.75 3.75 22.2187 3.75 45C3.75 67.7812 22.2187 86.25 45 86.25C67.7812 86.25 86.25 67.7812 86.25 45C86.25 22.2187 67.7812 3.75 45 3.75ZM40.845 33.5063C41.7075 31.8075 42.345 31.0012 42.8737 30.5812C43.2712 30.2662 43.8112 30 45 30C47.3437 30 48.75 31.7625 48.75 33.6675C48.75 34.71 48.5475 35.2275 47.9925 35.8875C47.2163 36.81 45.78 37.9312 42.9375 39.81L41.25 40.92V48.75C41.25 49.7446 41.6451 50.6984 42.3483 51.4016C43.0516 52.1049 44.0054 52.5 45 52.5C45.9946 52.5 46.9484 52.1049 47.6516 51.4016C48.3549 50.6984 48.75 49.7446 48.75 48.75V44.9362C50.7825 43.5337 52.4887 42.1912 53.7262 40.7212C55.515 38.5987 56.25 36.3337 56.25 33.6675C56.25 28.155 52.0012 22.5 45 22.5C42.435 22.5 40.1662 23.16 38.22 24.7012C36.405 26.1375 35.1675 28.1137 34.155 30.12C33.9197 30.5605 33.7748 31.0436 33.7287 31.5408C33.6827 32.0381 33.7364 32.5396 33.8868 33.0158C34.0371 33.492 34.2811 33.9334 34.6043 34.3141C34.9276 34.6947 35.3236 35.007 35.7692 35.2325C36.2148 35.4581 36.7009 35.5923 37.1991 35.6274C37.6972 35.6625 38.1974 35.5978 38.6702 35.437C39.143 35.2762 39.5789 35.0226 39.9524 34.691C40.3258 34.3595 40.6293 33.9567 40.845 33.5063ZM48.75 61.875C48.75 60.8804 48.3549 59.9266 47.6516 59.2233C46.9484 58.5201 45.9946 58.125 45 58.125C44.0054 58.125 43.0516 58.5201 42.3483 59.2233C41.6451 59.9266 41.25 60.8804 41.25 61.875V63.75C41.25 64.7446 41.6451 65.6984 42.3483 66.4016C43.0516 67.1049 44.0054 67.5 45 67.5C45.9946 67.5 46.9484 67.1049 47.6516 66.4016C48.3549 65.6984 48.75 64.7446 48.75 63.75V61.875Z" fill="#FF3D00"/>
</svg>
