<svg width="20" height="20" viewBox="0 0 20 20" fill="none" xmlns="http://www.w3.org/2000/svg">
<g clip-path="url(#clip0_50_692)">
<path d="M13.3333 13.3333C13.3333 12.4125 10.7216 11.6667 7.49992 11.6667M13.3333 13.3333C13.3333 14.2542 10.7216 15 7.49992 15C4.27825 15 1.66659 14.2542 1.66659 13.3333M13.3333 13.3333V17.4475C13.3333 18.3967 10.7216 19.1667 7.49992 19.1667C4.27825 19.1667 1.66659 18.3975 1.66659 17.4475V13.3333M13.3333 13.3333C16.5199 13.3333 19.1666 12.5108 19.1666 11.6667V3.33334M7.49992 11.6667C4.27825 11.6667 1.66659 12.4125 1.66659 13.3333M7.49992 11.6667C3.81825 11.6667 0.833252 10.8442 0.833252 10V5.83334M7.49992 4.16667C3.81825 4.16667 0.833252 4.9125 0.833252 5.83334M0.833252 5.83334C0.833252 6.75417 3.81825 7.5 7.49992 7.5C7.49992 8.34417 10.2108 9.16667 13.3974 9.16667C16.5833 9.16667 19.1666 8.34417 19.1666 7.5M19.1666 3.33334C19.1666 2.41251 16.5833 1.66667 13.3974 1.66667C10.2108 1.66667 7.62825 2.41251 7.62825 3.33334M19.1666 3.33334C19.1666 4.25417 16.5833 5.00001 13.3974 5.00001C10.2116 5.00001 7.62825 4.25417 7.62825 3.33334M7.62825 3.33334V11.805" stroke="#F8F8F8" stroke-width="1.66667"/>
</g>
<defs>
<clipPath id="clip0_50_692">
<rect width="20" height="20" fill="white"/>
</clipPath>
</defs>
</svg>
