<svg width="20" height="21" viewBox="0 0 20 21" fill="none" xmlns="http://www.w3.org/2000/svg">
<g clip-path="url(#clip0_940_621)">
<path fill-rule="evenodd" clip-rule="evenodd" d="M9.15 0.693446C10.8759 0.54616 12.6104 0.849704 14.1837 1.57434C15.757 2.29898 17.1151 3.41987 18.125 4.8272V2.8447C18.125 2.59606 18.2238 2.3576 18.3996 2.18178C18.5754 2.00597 18.8139 1.9072 19.0625 1.9072C19.3111 1.9072 19.5496 2.00597 19.7254 2.18178C19.9012 2.3576 20 2.59606 20 2.8447V8.1572H14.6875C14.4389 8.1572 14.2004 8.05842 14.0246 7.88261C13.8488 7.70679 13.75 7.46834 13.75 7.2197C13.75 6.97106 13.8488 6.7326 14.0246 6.55678C14.2004 6.38097 14.4389 6.2822 14.6875 6.2822H16.8463C15.9914 4.94458 14.7634 3.88668 13.314 3.23918C11.8646 2.59169 10.2573 2.38295 8.6906 2.63878C7.1239 2.8946 5.66646 3.60376 4.4983 4.67867C3.33015 5.75357 2.50247 7.14713 2.1175 8.6872C2.0891 8.80817 2.03694 8.9223 1.96404 9.02293C1.89114 9.12357 1.79897 9.20871 1.69287 9.2734C1.58677 9.3381 1.46887 9.38105 1.34602 9.39977C1.22317 9.41849 1.09783 9.4126 0.977281 9.38244C0.856731 9.35228 0.743379 9.29846 0.643817 9.2241C0.544255 9.14974 0.460469 9.05633 0.397331 8.9493C0.334193 8.84227 0.292964 8.72375 0.27604 8.60064C0.259117 8.47754 0.266836 8.35229 0.29875 8.2322C0.80443 6.21023 1.92925 4.3968 3.51599 3.04538C5.10273 1.69396 7.07207 0.872109 9.14875 0.694696L9.15 0.693446ZM4.9 19.2584C6.23998 20.0527 7.74698 20.5229 9.30085 20.6316C10.8547 20.7403 12.4125 20.4845 13.85 19.8846C15.2876 19.2847 16.5651 18.3573 17.5807 17.1763C18.5964 15.9953 19.3221 14.5933 19.7 13.0822C19.7563 12.8424 19.716 12.5902 19.5877 12.3799C19.4595 12.1696 19.2537 12.0183 19.0148 11.9585C18.7759 11.8987 18.5231 11.9354 18.311 12.0605C18.0989 12.1856 17.9445 12.3892 17.8813 12.6272C17.4961 14.1669 16.6684 15.5601 15.5003 16.6348C14.3323 17.7094 12.875 18.4184 11.3086 18.6742C9.74217 18.93 8.13511 18.7214 6.68589 18.0742C5.23666 17.4269 4.00874 16.3694 3.15375 15.0322H5.3125C5.56114 15.0322 5.7996 14.9334 5.97541 14.7576C6.15123 14.5818 6.25 14.3433 6.25 14.0947C6.25 13.8461 6.15123 13.6076 5.97541 13.4318C5.7996 13.256 5.56114 13.1572 5.3125 13.1572H0V18.4697C0 18.7183 0.098772 18.9568 0.274587 19.1326C0.450403 19.3084 0.68886 19.4072 0.9375 19.4072C1.18614 19.4072 1.4246 19.3084 1.60041 19.1326C1.77623 18.9568 1.875 18.7183 1.875 18.4697V16.4872C2.68098 17.6101 3.71098 18.5537 4.9 19.2584Z" fill="#1DC1B4"/>
<path fill-rule="evenodd" clip-rule="evenodd" d="M9.15 0.693446C10.8759 0.54616 12.6104 0.849704 14.1837 1.57434C15.757 2.29898 17.1151 3.41987 18.125 4.8272V2.8447C18.125 2.59606 18.2238 2.3576 18.3996 2.18178C18.5754 2.00597 18.8139 1.9072 19.0625 1.9072C19.3111 1.9072 19.5496 2.00597 19.7254 2.18178C19.9012 2.3576 20 2.59606 20 2.8447V8.1572H14.6875C14.4389 8.1572 14.2004 8.05842 14.0246 7.88261C13.8488 7.70679 13.75 7.46834 13.75 7.2197C13.75 6.97106 13.8488 6.7326 14.0246 6.55678C14.2004 6.38097 14.4389 6.2822 14.6875 6.2822H16.8463C15.9914 4.94458 14.7634 3.88668 13.314 3.23918C11.8646 2.59169 10.2573 2.38295 8.6906 2.63878C7.1239 2.8946 5.66646 3.60376 4.4983 4.67867C3.33015 5.75357 2.50247 7.14713 2.1175 8.6872C2.0891 8.80817 2.03694 8.9223 1.96404 9.02293C1.89114 9.12357 1.79897 9.20871 1.69287 9.2734C1.58677 9.3381 1.46887 9.38105 1.34602 9.39977C1.22317 9.41849 1.09783 9.4126 0.977281 9.38244C0.856731 9.35228 0.743379 9.29846 0.643817 9.2241C0.544255 9.14974 0.460469 9.05633 0.397331 8.9493C0.334193 8.84227 0.292964 8.72375 0.27604 8.60064C0.259117 8.47754 0.266836 8.35229 0.29875 8.2322C0.80443 6.21023 1.92925 4.3968 3.51599 3.04538C5.10273 1.69396 7.07207 0.872109 9.14875 0.694696L9.15 0.693446ZM4.9 19.2584C6.23998 20.0527 7.74698 20.5229 9.30085 20.6316C10.8547 20.7403 12.4125 20.4845 13.85 19.8846C15.2876 19.2847 16.5651 18.3573 17.5807 17.1763C18.5964 15.9953 19.3221 14.5933 19.7 13.0822C19.7563 12.8424 19.716 12.5902 19.5877 12.3799C19.4595 12.1696 19.2537 12.0183 19.0148 11.9585C18.7759 11.8987 18.5231 11.9354 18.311 12.0605C18.0989 12.1856 17.9445 12.3892 17.8813 12.6272C17.4961 14.1669 16.6684 15.5601 15.5003 16.6348C14.3323 17.7094 12.875 18.4184 11.3086 18.6742C9.74217 18.93 8.13511 18.7214 6.68589 18.0742C5.23666 17.4269 4.00874 16.3694 3.15375 15.0322H5.3125C5.56114 15.0322 5.7996 14.9334 5.97541 14.7576C6.15123 14.5818 6.25 14.3433 6.25 14.0947C6.25 13.8461 6.15123 13.6076 5.97541 13.4318C5.7996 13.256 5.56114 13.1572 5.3125 13.1572H0V18.4697C0 18.7183 0.098772 18.9568 0.274587 19.1326C0.450403 19.3084 0.68886 19.4072 0.9375 19.4072C1.18614 19.4072 1.4246 19.3084 1.60041 19.1326C1.77623 18.9568 1.875 18.7183 1.875 18.4697V16.4872C2.68098 17.6101 3.71098 18.5537 4.9 19.2584Z" fill="#1DC1B4"/>
</g>
<defs>
<clipPath id="clip0_940_621">
<rect width="20" height="20" fill="white" transform="translate(0 0.657227)"/>
</clipPath>
</defs>
</svg>
