<svg width="18" height="18" viewBox="0 0 18 18" fill="none" xmlns="http://www.w3.org/2000/svg">
<path d="M16.4999 16.5L12.8808 12.8808M12.8808 12.8808C13.4998 12.2617 13.9909 11.5268 14.3259 10.7179C14.661 9.90909 14.8334 9.04216 14.8334 8.16666C14.8334 7.29115 14.661 6.42422 14.326 5.61537C13.9909 4.80651 13.4998 4.07156 12.8808 3.45249C12.2617 2.83342 11.5267 2.34234 10.7179 2.0073C9.90902 1.67226 9.0421 1.49982 8.16659 1.49982C7.29109 1.49982 6.42416 1.67226 5.61531 2.0073C4.80645 2.34234 4.0715 2.83342 3.45243 3.45249C2.20215 4.70276 1.49976 6.3985 1.49976 8.16666C1.49976 9.93481 2.20215 11.6305 3.45243 12.8808C4.7027 14.1311 6.39844 14.8335 8.16659 14.8335C9.93475 14.8335 11.6305 14.1311 12.8808 12.8808Z" stroke="black" stroke-width="1.25" stroke-linecap="round" stroke-linejoin="round"/>
</svg>
