<svg width="20" height="20" viewBox="0 0 20 20" fill="none" xmlns="http://www.w3.org/2000/svg">
<path d="M2.5 20C1.8125 20 1.22375 19.8133 0.733752 19.44C0.243752 19.0667 -0.000831211 18.6184 2.12224e-06 18.0952V8.57143C2.12224e-06 8.04762 0.245002 7.59905 0.735002 7.22571C1.225 6.85238 1.81334 6.66603 2.5 6.66667H3.75V4.7619C3.75 3.44444 4.35959 2.32127 5.57875 1.39238C6.79792 0.463493 8.27167 -0.00063427 10 6.50534e-07C11.7292 6.50534e-07 13.2033 0.464445 14.4225 1.39333C15.6417 2.32222 16.2508 3.44508 16.25 4.7619V6.66667H17.5C18.1875 6.66667 18.7762 6.85333 19.2662 7.22667C19.7562 7.6 20.0008 8.04825 20 8.57143V18.0952C20 18.619 19.755 19.0676 19.265 19.441C18.775 19.8143 18.1867 20.0006 17.5 20H2.5ZM2.5 18.0952H17.5V8.57143H2.5V18.0952ZM10 15.2381C10.6875 15.2381 11.2763 15.0514 11.7663 14.6781C12.2563 14.3048 12.5008 13.8565 12.5 13.3333C12.5 12.8095 12.255 12.361 11.765 11.9876C11.275 11.6143 10.6867 11.4279 10 11.4286C9.3125 11.4286 8.72375 11.6152 8.23375 11.9886C7.74375 12.3619 7.49917 12.8102 7.5 13.3333C7.5 13.8571 7.745 14.3057 8.235 14.679C8.725 15.0524 9.31333 15.2387 10 15.2381ZM6.25 6.66667H13.75V4.7619C13.75 3.96825 13.3854 3.29365 12.6562 2.7381C11.9271 2.18254 11.0417 1.90476 10 1.90476C8.95833 1.90476 8.07292 2.18254 7.34375 2.7381C6.61458 3.29365 6.25 3.96825 6.25 4.7619V6.66667Z" fill="white"/>
</svg>
