<svg width="22" height="22" viewBox="0 0 22 22" fill="none" xmlns="http://www.w3.org/2000/svg">
<path d="M11 5.44444C10.4106 5.44444 9.8454 5.21032 9.42865 4.79357C9.0119 4.37682 8.77778 3.81159 8.77778 3.22222C8.77778 2.63285 9.0119 2.06762 9.42865 1.65087C9.8454 1.23413 10.4106 1 11 1C11.5894 1 12.1546 1.23413 12.5713 1.65087C12.9881 2.06762 13.2222 2.63285 13.2222 3.22222C13.2222 3.81159 12.9881 4.37682 12.5713 4.79357C12.1546 5.21032 11.5894 5.44444 11 5.44444ZM11 5.44444V9.88889M11 9.88889C11.8841 9.88889 12.7319 10.2401 13.357 10.8652C13.9821 11.4903 14.3333 12.3382 14.3333 13.2222C14.3333 14.1063 13.9821 14.9541 13.357 15.5792C12.7319 16.2044 11.8841 16.5556 11 16.5556C10.1159 16.5556 9.2681 16.2044 8.64298 15.5792C8.01786 14.9541 7.66667 14.1063 7.66667 13.2222C7.66667 12.3382 8.01786 11.4903 8.64298 10.8652C9.2681 10.2401 10.1159 9.88889 11 9.88889ZM5.11111 17.4444L8.22222 15.2222M16.8889 17.4444L13.7778 15.2222M1 18.7778C1 19.3671 1.23413 19.9324 1.65087 20.3491C2.06762 20.7659 2.63285 21 3.22222 21C3.81159 21 4.37682 20.7659 4.79357 20.3491C5.21032 19.9324 5.44444 19.3671 5.44444 18.7778C5.44444 18.1884 5.21032 17.6232 4.79357 17.2064C4.37682 16.7897 3.81159 16.5556 3.22222 16.5556C2.63285 16.5556 2.06762 16.7897 1.65087 17.2064C1.23413 17.6232 1 18.1884 1 18.7778ZM16.5556 18.7778C16.5556 19.3671 16.7897 19.9324 17.2064 20.3491C17.6232 20.7659 18.1884 21 18.7778 21C19.3671 21 19.9324 20.7659 20.3491 20.3491C20.7659 19.9324 21 19.3671 21 18.7778C21 18.1884 20.7659 17.6232 20.3491 17.2064C19.9324 16.7897 19.3671 16.5556 18.7778 16.5556C18.1884 16.5556 17.6232 16.7897 17.2064 17.2064C16.7897 17.6232 16.5556 18.1884 16.5556 18.7778Z" stroke="white" stroke-width="2" stroke-linecap="round" stroke-linejoin="round"/>
</svg>
