<svg width="25" height="24" viewBox="0 0 25 24" fill="none" xmlns="http://www.w3.org/2000/svg">
<g clip-path="url(#clip0_197_1761)">
<path d="M12.5 0C10.8654 0 9.61538 1.2 9.61538 2.76923V8.30769C9.61538 9.87692 10.8654 11.0769 12.5 11.0769H18.2692L22.1154 14.7692V11.0769C23.75 11.0769 25 9.87692 25 8.30769V2.76923C25 1.2 23.75 0 22.1154 0H12.5ZM16.5269 2.76923H18.1788L19.8019 8.30769H18.3596L17.9683 6.92308H16.526L16.1663 8.30769H14.9038L16.5269 2.76923ZM17.3077 3.69231C17.2115 4.06154 17.1038 4.512 17.0067 4.78892L16.7375 6H17.8788L17.6077 4.788C17.4163 4.512 17.3077 4.06154 17.3077 3.69231ZM2.88462 9.23077C1.25 9.23077 0 10.4308 0 12V17.5385C0 19.1077 1.25 20.3077 2.88462 20.3077V24L6.73077 20.3077H12.5C14.1346 20.3077 15.3846 19.1077 15.3846 17.5385V12H12.5C10.6731 12 9.225 10.8 8.74423 9.23077H2.88462ZM7.30192 11.9132C8.93654 11.9132 9.70577 13.2055 9.70577 14.6825C9.70577 15.9748 9.24327 16.7945 8.47404 17.1637C8.85865 17.3483 9.31442 17.4462 9.79519 17.5385L9.43558 18.4615C8.7625 18.2769 8.06442 17.9889 7.39135 17.7111C7.29519 17.6188 7.12692 17.6252 7.03077 17.6252C5.87692 17.5329 4.80769 16.6154 4.80769 14.7692C4.80769 13.2 5.76346 11.9132 7.30192 11.9132ZM7.30192 12.9231C6.53269 12.9231 6.15962 13.7538 6.15962 14.7692C6.15962 15.8769 6.53269 16.6154 7.30192 16.6154C8.07115 16.6154 8.47308 15.7846 8.47308 14.7692C8.47308 13.7538 8.07115 12.9231 7.30192 12.9231Z" fill="black" fill-opacity="0.85"/>
</g>
<defs>
<clipPath id="clip0_197_1761">
<rect width="25" height="24" fill="white"/>
</clipPath>
</defs>
</svg>
