<svg width="19" height="17" viewBox="0 0 19 17" fill="none" xmlns="http://www.w3.org/2000/svg">
<path d="M1.16663 3.7381H15.4523C16.0838 3.7381 16.6894 3.98895 17.1359 4.43546C17.5824 4.88198 17.8333 5.48758 17.8333 6.11905V13.2619C17.8333 13.8934 17.5824 14.499 17.1359 14.9455C16.6894 15.392 16.0838 15.6429 15.4523 15.6429H3.54758C2.91611 15.6429 2.31051 15.392 1.86399 14.9455C1.41748 14.499 1.16663 13.8934 1.16663 13.2619V3.7381ZM1.16663 3.7381H14.2619V2.54762C14.2619 2.23189 14.1364 1.92909 13.9132 1.70583C13.6899 1.48257 13.3871 1.35715 13.0714 1.35715H2.3571C2.04137 1.35715 1.73857 1.48257 1.51531 1.70583C1.29205 1.92909 1.16663 2.23189 1.16663 2.54762V3.7381Z" stroke="black" stroke-width="0.952381" stroke-linecap="round" stroke-linejoin="round"/>
<path d="M14.2619 10.881C14.9194 10.881 15.4524 10.348 15.4524 9.69048C15.4524 9.033 14.9194 8.5 14.2619 8.5C13.6044 8.5 13.0714 9.033 13.0714 9.69048C13.0714 10.348 13.6044 10.881 14.2619 10.881Z" fill="black"/>
</svg>
