<svg width="15" height="12" viewBox="0 0 15 12" fill="none" xmlns="http://www.w3.org/2000/svg">
<path d="M14.0625 4.5625H13.4297L11.802 0.900391C11.7283 0.734703 11.6082 0.593933 11.4561 0.495135C11.3041 0.396338 11.1266 0.343752 10.9453 0.34375H4.05469C3.87336 0.343752 3.69593 0.396338 3.54389 0.495135C3.39184 0.593933 3.27171 0.734703 3.19805 0.900391L1.57031 4.5625H0.9375C0.81318 4.5625 0.693951 4.61189 0.606044 4.69979C0.518136 4.7877 0.46875 4.90693 0.46875 5.03125C0.46875 5.15557 0.518136 5.2748 0.606044 5.36271C0.693951 5.45061 0.81318 5.5 0.9375 5.5H1.40625V10.1875C1.40625 10.4361 1.50502 10.6746 1.68084 10.8504C1.85665 11.0262 2.09511 11.125 2.34375 11.125H3.75C3.99864 11.125 4.2371 11.0262 4.41291 10.8504C4.58873 10.6746 4.6875 10.4361 4.6875 10.1875V9.25H10.3125V10.1875C10.3125 10.4361 10.4113 10.6746 10.5871 10.8504C10.7629 11.0262 11.0014 11.125 11.25 11.125H12.6562C12.9049 11.125 13.1433 11.0262 13.3192 10.8504C13.495 10.6746 13.5938 10.4361 13.5938 10.1875V5.5H14.0625C14.1868 5.5 14.306 5.45061 14.394 5.36271C14.4819 5.2748 14.5312 5.15557 14.5312 5.03125C14.5312 4.90693 14.4819 4.7877 14.394 4.69979C14.306 4.61189 14.1868 4.5625 14.0625 4.5625ZM4.6875 7.375H3.75C3.62568 7.375 3.50645 7.32561 3.41854 7.23771C3.33064 7.1498 3.28125 7.03057 3.28125 6.90625C3.28125 6.78193 3.33064 6.6627 3.41854 6.57479C3.50645 6.48689 3.62568 6.4375 3.75 6.4375H4.6875C4.81182 6.4375 4.93105 6.48689 5.01896 6.57479C5.10686 6.6627 5.15625 6.78193 5.15625 6.90625C5.15625 7.03057 5.10686 7.1498 5.01896 7.23771C4.93105 7.32561 4.81182 7.375 4.6875 7.375ZM10.3125 7.375C10.1882 7.375 10.069 7.32561 9.98104 7.23771C9.89314 7.1498 9.84375 7.03057 9.84375 6.90625C9.84375 6.78193 9.89314 6.6627 9.98104 6.57479C10.069 6.48689 10.1882 6.4375 10.3125 6.4375H11.25C11.3743 6.4375 11.4935 6.48689 11.5815 6.57479C11.6694 6.6627 11.7188 6.78193 11.7188 6.90625C11.7188 7.03057 11.6694 7.1498 11.5815 7.23771C11.4935 7.32561 11.3743 7.375 11.25 7.375H10.3125Z" fill="#1DC1B4"/>
</svg>
