<svg width="15" height="12" viewBox="0 0 15 12" fill="none" xmlns="http://www.w3.org/2000/svg">
<path d="M14.0625 4.47656H13.4297L11.802 0.814453C11.7283 0.648766 11.6082 0.507996 11.4561 0.409198C11.3041 0.3104 11.1266 0.257815 10.9453 0.257812H4.05469C3.87336 0.257815 3.69593 0.3104 3.54389 0.409198C3.39184 0.507996 3.27171 0.648766 3.19805 0.814453L1.57031 4.47656H0.9375C0.81318 4.47656 0.693951 4.52595 0.606044 4.61386C0.518136 4.70176 0.46875 4.82099 0.46875 4.94531C0.46875 5.06963 0.518136 5.18886 0.606044 5.27677C0.693951 5.36468 0.81318 5.41406 0.9375 5.41406H1.40625V10.1016C1.40625 10.3502 1.50502 10.5887 1.68084 10.7645C1.85665 10.9403 2.09511 11.0391 2.34375 11.0391H3.75C3.99864 11.0391 4.2371 10.9403 4.41291 10.7645C4.58873 10.5887 4.6875 10.3502 4.6875 10.1016V9.16406H10.3125V10.1016C10.3125 10.3502 10.4113 10.5887 10.5871 10.7645C10.7629 10.9403 11.0014 11.0391 11.25 11.0391H12.6562C12.9049 11.0391 13.1433 10.9403 13.3192 10.7645C13.495 10.5887 13.5938 10.3502 13.5938 10.1016V5.41406H14.0625C14.1868 5.41406 14.306 5.36468 14.394 5.27677C14.4819 5.18886 14.5312 5.06963 14.5312 4.94531C14.5312 4.82099 14.4819 4.70176 14.394 4.61386C14.306 4.52595 14.1868 4.47656 14.0625 4.47656ZM4.6875 7.28906H3.75C3.62568 7.28906 3.50645 7.23968 3.41854 7.15177C3.33064 7.06386 3.28125 6.94463 3.28125 6.82031C3.28125 6.69599 3.33064 6.57676 3.41854 6.48886C3.50645 6.40095 3.62568 6.35156 3.75 6.35156H4.6875C4.81182 6.35156 4.93105 6.40095 5.01896 6.48886C5.10686 6.57676 5.15625 6.69599 5.15625 6.82031C5.15625 6.94463 5.10686 7.06386 5.01896 7.15177C4.93105 7.23968 4.81182 7.28906 4.6875 7.28906ZM10.3125 7.28906C10.1882 7.28906 10.069 7.23968 9.98104 7.15177C9.89314 7.06386 9.84375 6.94463 9.84375 6.82031C9.84375 6.69599 9.89314 6.57676 9.98104 6.48886C10.069 6.40095 10.1882 6.35156 10.3125 6.35156H11.25C11.3743 6.35156 11.4935 6.40095 11.5815 6.48886C11.6694 6.57676 11.7188 6.69599 11.7188 6.82031C11.7188 6.94463 11.6694 7.06386 11.5815 7.15177C11.4935 7.23968 11.3743 7.28906 11.25 7.28906H10.3125Z" fill="white"/>
</svg>
