<svg width="16" height="15" viewBox="0 0 16 15" fill="none" xmlns="http://www.w3.org/2000/svg">
<g clip-path="url(#clip0_401_511)">
<path d="M13.0208 8.75C13.2716 8.75012 13.5127 8.84286 13.6942 9.009C13.8757 9.17515 13.9837 9.40196 13.9957 9.64244C14.0078 9.88293 13.923 10.1186 13.759 10.3007C13.5949 10.4829 13.3642 10.5974 13.1145 10.6206L13.0208 10.625H4.96155L5.89905 11.525C6.07664 11.6949 6.17937 11.9238 6.18599 12.1644C6.19261 12.4049 6.1026 12.6387 5.9346 12.8174C5.76661 12.996 5.53349 13.1058 5.28352 13.1239C5.03354 13.1421 4.78587 13.0673 4.59176 12.915L4.51754 12.8506L2.0247 10.4569C1.39059 9.84812 1.80335 8.82125 2.66989 8.75375L2.76103 8.75H13.0208ZM9.72653 2.15C9.89734 1.98587 10.1255 1.88838 10.3668 1.87637C10.6082 1.86437 10.8456 1.9387 11.0332 2.085L11.1074 2.14937L13.6002 4.54312C14.2343 5.15187 13.8216 6.17875 12.955 6.24625L12.8639 6.25H2.60413C2.35334 6.24988 2.11221 6.15714 1.9307 5.99099C1.7492 5.82485 1.64123 5.59803 1.62918 5.35755C1.61713 5.11707 1.70191 4.88135 1.86596 4.69925C2.03002 4.51714 2.26076 4.4026 2.51038 4.37937L2.60413 4.375H10.6634L9.72588 3.475C9.543 3.29922 9.44028 3.06094 9.44028 2.8125C9.44028 2.56406 9.54365 2.32578 9.72653 2.15Z" fill="#1DC1B4"/>
</g>
<defs>
<clipPath id="clip0_401_511">
<rect width="15.625" height="15" fill="white"/>
</clipPath>
</defs>
</svg>
