<svg width="13" height="13" viewBox="0 0 13 13" fill="none" xmlns="http://www.w3.org/2000/svg">
<path d="M12.0208 7.66407C12.2716 7.66419 12.5127 7.75693 12.6942 7.92307C12.8757 8.08922 12.9837 8.31603 12.9957 8.55651C13.0078 8.797 12.923 9.03271 12.759 9.21482C12.5949 9.39692 12.3642 9.51146 12.1145 9.53469L12.0208 9.53907H3.96155L4.89905 10.4391C5.07664 10.6089 5.17937 10.8379 5.18599 11.0784C5.19261 11.319 5.1026 11.5528 4.9346 11.7314C4.76661 11.9101 4.53349 12.0198 4.28352 12.038C4.03354 12.0562 3.78587 11.9814 3.59176 11.8291L3.51754 11.7647L1.0247 9.37094C0.39059 8.76219 0.80335 7.73532 1.66989 7.66782L1.76103 7.66407H12.0208ZM8.72653 1.06407C8.89734 0.899941 9.12548 0.802448 9.36683 0.790442C9.60818 0.778435 9.8456 0.852769 10.0332 0.999068L10.1074 1.06344L12.6002 3.45719C13.2343 4.06594 12.8216 5.09282 11.955 5.16032L11.8639 5.16407H1.60413C1.35334 5.16395 1.11221 5.07121 0.930703 4.90506C0.749198 4.73892 0.641233 4.5121 0.629181 4.27162C0.617129 4.03114 0.701913 3.79542 0.865965 3.61332C1.03002 3.43121 1.26076 3.31667 1.51038 3.29344L1.60413 3.28907H9.66338L8.72588 2.38907C8.543 2.21329 8.44028 1.97501 8.44028 1.72657C8.44028 1.47813 8.54365 1.23985 8.72653 1.06407Z" fill="white"/>
</svg>
