<svg width="25" height="24" viewBox="0 0 25 24" fill="none" xmlns="http://www.w3.org/2000/svg">
<g clip-path="url(#clip0_197_1755)">
<path d="M20.8334 14C21.2346 14.0002 21.6205 14.1486 21.9109 14.4144C22.2013 14.6802 22.374 15.0431 22.3933 15.4279C22.4126 15.8127 22.2769 16.1898 22.0144 16.4812C21.752 16.7726 21.3828 16.9558 20.9834 16.993L20.8334 17H7.93858L9.43858 18.44C9.72271 18.7118 9.88709 19.078 9.89768 19.463C9.90827 19.8479 9.76426 20.222 9.49546 20.5078C9.22667 20.7936 8.85368 20.9692 8.45372 20.9983C8.05377 21.0274 7.65748 20.9077 7.34692 20.664L7.22817 20.561L3.23962 16.731C2.22504 15.757 2.88546 14.114 4.27192 14.006L4.41775 14H20.8334ZM15.5625 3.44C15.8358 3.17739 16.2009 3.0214 16.587 3.00219C16.9732 2.98298 17.3531 3.10192 17.6532 3.336L17.7719 3.439L21.7605 7.269C22.775 8.243 22.1146 9.886 20.7282 9.994L20.5823 10H4.16671C3.76544 9.9998 3.37963 9.85142 3.08922 9.58559C2.79881 9.31975 2.62607 8.95685 2.60679 8.57208C2.5875 8.18731 2.72316 7.81016 2.98564 7.51879C3.24812 7.22742 3.61731 7.04417 4.01671 7.007L4.16671 7H17.0615L15.5615 5.56C15.2689 5.27875 15.1045 4.8975 15.1045 4.5C15.1045 4.10249 15.2699 3.72125 15.5625 3.44Z" fill="black" fill-opacity="0.85"/>
</g>
<defs>
<clipPath id="clip0_197_1755">
<rect width="25" height="24" fill="white"/>
</clipPath>
</defs>
</svg>
