<svg width="32" height="32" viewBox="0 0 32 32" fill="none" xmlns="http://www.w3.org/2000/svg">
<path d="M-7 -0.333542H39V30.3335H-7V-0.333542Z" fill="#F0F0F0"/>
<path d="M-7 3.49947H39V7.33247H-7V3.49947ZM-7 11.1665H39V14.9995H-7V11.1665ZM-7 18.8325H39V22.6655H-7V18.8325ZM-7 26.4995H39V30.3325H-7V26.4995Z" fill="#D80027"/>
<path d="M-7 -0.333542H16V16.1795H-7V-0.333542Z" fill="#2E52B2"/>
<path d="M1.96829 6.43107L1.59787 7.57064H0.399711L1.36922 8.27457L0.998789 9.41406L1.96829 8.71013L2.93717 9.41406L2.56683 8.27457L3.53634 7.57064H2.33809L1.96829 6.43107ZM2.33809 11.683L1.96829 10.5435L1.59787 11.683H0.399711L1.36922 12.387L0.998789 13.5265L1.96829 12.8225L2.93717 13.5265L2.56683 12.387L3.53634 11.683H2.33809ZM-2.72559 11.683L-3.09548 10.5435L-3.46591 11.683H-4.66406L-3.69456 12.387L-4.06498 13.5265L-3.09548 12.8225L-2.12652 13.5265L-2.49685 12.387L-1.52753 11.683H-2.72559ZM-3.09548 6.43107L-3.46591 7.57064H-4.66406L-3.69456 8.27457L-4.06498 9.41406L-3.09548 8.71013L-2.12652 9.41406L-2.49685 8.27457L-1.52753 7.57064H-2.72559L-3.09548 6.43107ZM1.96829 2.31856L1.59787 3.45823H0.399711L1.36922 4.16224L0.998789 5.30173L1.96829 4.59771L2.93717 5.30173L2.56683 4.16224L3.53634 3.45823H2.33809L1.96829 2.31856ZM-3.09548 2.31856L-3.46591 3.45823H-4.66406L-3.69456 4.16224L-4.06498 5.30173L-3.09548 4.59771L-2.12652 5.30173L-2.49685 4.16224L-1.52753 3.45823H-2.72559L-3.09548 2.31856ZM7.03198 6.43107L6.66164 7.57064H5.46348L6.4329 8.27457L6.06265 9.41406L7.03198 8.71013L8.00103 9.41406L7.63061 8.27457L8.60011 7.57064H7.40195L7.03198 6.43107ZM7.40195 11.683L7.03198 10.5435L6.66164 11.683H5.46348L6.4329 12.387L6.06265 13.5265L7.03198 12.8225L8.00103 13.5265L7.63061 12.387L8.60011 11.683H7.40195ZM12.4657 11.683L12.0958 10.5435L11.7254 11.683H10.5273L11.4967 12.387L11.1263 13.5265L12.0958 12.8225L13.0648 13.5265L12.6944 12.387L13.6639 11.683H12.4657ZM12.0958 6.43107L11.7254 7.57064H10.5273L11.4967 8.27457L11.1263 9.41406L12.0958 8.71013L13.0648 9.41406L12.6944 8.27457L13.6639 7.57064H12.4657L12.0958 6.43107ZM7.03198 2.31856L6.66164 3.45823H5.46348L6.4329 4.16224L6.06265 5.30173L7.03198 4.59771L8.00103 5.30173L7.63061 4.16224L8.60011 3.45823H7.40195L7.03198 2.31856ZM12.0958 2.31856L11.7254 3.45823H10.5273L11.4967 4.16224L11.1263 5.30173L12.0958 4.59771L13.0648 5.30173L12.6944 4.16224L13.6639 3.45823H12.4657L12.0958 2.31856Z" fill="#F0F0F0"/>
</svg>
