<svg width="32" height="32" viewBox="0 0 32 32" fill="none" xmlns="http://www.w3.org/2000/svg">
<path d="M-8 -3.05176e-05H40V32.0003H-8V-3.05176e-05Z" fill="#F0F0F0"/>
<path d="M19 -0.000305176H13V12.9996H-8V18.9996H13V31.9996H19V18.9996H40V12.9996H19V-0.000305176Z" fill="#D80027"/>
<path d="M28.9173 21.5648L39.9999 27.7219V21.5648H28.9173ZM21.2173 21.5648L39.9999 31.9996V29.0489L26.5287 21.5648H21.2173ZM34.9968 31.9996L21.2173 24.3436V31.9996H34.9968Z" fill="#0052B4"/>
<path d="M21.2173 21.5648L39.9999 31.9996V29.0489L26.5287 21.5648H21.2173Z" fill="#F0F0F0"/>
<path d="M21.2173 21.5648L39.9999 31.9996V29.0489L26.5287 21.5648H21.2173Z" fill="#D80027"/>
<path d="M0.469469 21.5646L-8 26.2699V21.5646H0.469469ZM10.7826 22.8916V31.9995H-5.61022L10.7826 22.8916Z" fill="#0052B4"/>
<path d="M5.47122 21.5648L-8 29.0489V31.9996L10.7826 21.5648H5.47122Z" fill="#D80027"/>
<path d="M3.08266 10.4344L-8 4.27732V10.4344H3.08266ZM10.7826 10.4344L-8 -0.000305176V2.95038L5.47122 10.4344H10.7826ZM-2.99694 -0.000305176L10.7826 7.6557V-0.000305176H-2.99694Z" fill="#0052B4"/>
<path d="M10.7826 10.4344L-8 -0.000305176V2.95038L5.47122 10.4344H10.7826Z" fill="#F0F0F0"/>
<path d="M10.7826 10.4344L-8 -0.000305176V2.95038L5.47122 10.4344H10.7826Z" fill="#D80027"/>
<path d="M31.5304 10.4346L39.9999 5.72932V10.4346H31.5304ZM21.2173 9.10769V-0.000213623H37.6101L21.2173 9.10769Z" fill="#0052B4"/>
<path d="M26.5287 10.4344L39.9999 2.95038V-0.000305176L21.2173 10.4344H26.5287Z" fill="#D80027"/>
</svg>
