<svg width="35" height="36" viewBox="0 0 35 36" fill="none" xmlns="http://www.w3.org/2000/svg">
<rect y="0.5" width="35" height="35" rx="17.5" fill="#9FDFDA"/>
<path d="M10.3567 24.4489C12.6882 23.131 15.3218 22.4404 18 22.4444C20.7778 22.4444 23.3856 23.1722 25.6433 24.4489M21.3333 15.7778C21.3333 16.6618 20.9821 17.5097 20.357 18.1348C19.7319 18.7599 18.8841 19.1111 18 19.1111C17.1159 19.1111 16.2681 18.7599 15.643 18.1348C15.0179 17.5097 14.6667 16.6618 14.6667 15.7778C14.6667 14.8937 15.0179 14.0459 15.643 13.4208C16.2681 12.7956 17.1159 12.4444 18 12.4444C18.8841 12.4444 19.7319 12.7956 20.357 13.4208C20.9821 14.0459 21.3333 14.8937 21.3333 15.7778ZM28 18C28 19.3132 27.7413 20.6136 27.2388 21.8268C26.7362 23.0401 25.9997 24.1425 25.0711 25.0711C24.1425 25.9997 23.0401 26.7362 21.8268 27.2388C20.6136 27.7413 19.3132 28 18 28C16.6868 28 15.3864 27.7413 14.1732 27.2388C12.9599 26.7362 11.8575 25.9997 10.9289 25.0711C10.0003 24.1425 9.26375 23.0401 8.7612 21.8268C8.25866 20.6136 8 19.3132 8 18C8 15.3478 9.05357 12.8043 10.9289 10.9289C12.8043 9.05357 15.3478 8 18 8C20.6522 8 23.1957 9.05357 25.0711 10.9289C26.9464 12.8043 28 15.3478 28 18Z" stroke="#008D82" stroke-width="2" stroke-linecap="round" stroke-linejoin="round"/>
</svg>
