<svg width="46" height="16" viewBox="0 0 46 16" fill="none" xmlns="http://www.w3.org/2000/svg">
<path d="M24.0233 5.71537C23.9968 7.80493 25.8855 8.97092 27.3082 9.66424C28.77 10.3755 29.261 10.8317 29.2552 11.4678C29.2443 12.4413 28.0892 12.871 27.0083 12.8877C25.1225 12.9169 24.026 12.3785 23.1543 11.9714L22.475 15.1502C23.3495 15.5532 24.969 15.9046 26.6483 15.92C30.5903 15.92 33.1692 13.9742 33.1832 10.9572C33.1986 7.12831 27.887 6.91638 27.9233 5.20495C27.9358 4.68601 28.431 4.13223 29.5161 3.99143C30.0532 3.9203 31.5358 3.86586 33.2167 4.63992L33.8765 1.56437C32.9725 1.23522 31.8107 0.920044 30.3642 0.920044C26.6539 0.920044 24.0443 2.89239 24.0233 5.71537ZM40.2159 1.18496C39.4961 1.18496 38.8895 1.60483 38.6188 2.24916L32.9879 15.6941H36.927L37.7108 13.5278H42.5243L42.979 15.6941H46.4509L43.4212 1.18496H40.2159ZM40.767 5.10443L41.9038 10.5528H38.7905L40.767 5.10443ZM19.2474 1.18514L16.1424 15.694H19.896L22.9995 1.18478H19.2474M13.6945 1.18478L9.78752 11.0605L8.20711 2.66358C8.02166 1.72622 7.28934 1.18496 6.47609 1.18496H0.0894542L0 1.60628C1.31115 1.89079 2.80084 2.34968 3.70337 2.84068C4.2557 3.14061 4.4132 3.40281 4.59464 4.11554L7.588 15.6941H11.5547L17.6361 1.18496L13.6945 1.18478Z" fill="url(#paint0_linear_195_750)"/>
<defs>
<linearGradient id="paint0_linear_195_750" x1="2135.53" y1="46.01" x2="2178.95" y2="-1494.51" gradientUnits="userSpaceOnUse">
<stop stop-color="#222357"/>
<stop offset="1" stop-color="#254AA5"/>
</linearGradient>
</defs>
</svg>
