<svg width="115" height="103" viewBox="0 0 115 103" fill="none" xmlns="http://www.w3.org/2000/svg">
<path d="M-32.4915 63.2416H-66.0304L-63.5234 56.4695L-59.1702 56.6077C-56.7818 56.6768 -40.1309 56.7459 -22.1418 56.7459C8.11101 56.7631 10.7196 56.7459 12.9216 56.4522C18.2913 55.7611 20.9337 54.6209 21.9839 52.5133C22.1703 52.1505 22.5429 50.9585 22.8139 49.8701C24.1691 44.5146 27.0487 40.8867 29.9452 40.8867C31.4697 40.8867 32.6385 41.7678 33.6379 43.6854C34.6542 45.6203 35.535 49.7492 35.535 52.5478C35.535 53.498 35.6197 53.9472 35.8569 54.31C36.1787 54.8282 36.8563 55.3811 36.9918 55.2429C37.0426 55.2083 37.2289 53.688 37.3983 51.8568C38.3808 42.096 39.8883 33.078 43.2422 16.6833C45.1224 7.44079 46.5622 3.67468 49.2555 0.858727C52.3384 -2.35457 55.9802 -1.33533 57.4539 3.15638C58.4025 6.00688 58.8937 14.4202 59.4188 36.9824C60.2997 74.5399 60.9603 92.4722 61.4515 93.2841C61.7733 93.8197 62.5356 92.7659 63.1454 90.9519C63.9076 88.7061 64.3311 85.5446 64.7546 79.0489C65.0595 74.3499 65.3813 71.1366 65.7709 69.1672C67.3462 61.1857 71.9536 57.7651 82.371 56.8495C83.5567 56.7459 90.671 56.6768 99.4115 56.6768H114.436L114.335 63.1552L97.345 63.1033C80.9143 63.0688 80.2875 63.0688 78.6783 63.4143C77.7636 63.6043 76.7304 63.8808 76.4085 64.0535C74.8163 64.8137 73.0038 67.5605 72.0722 70.5838C71.0558 73.8834 70.5307 77.0795 69.5822 85.7864C68.4642 95.9273 67.5495 99.4689 65.5507 101.248C64.3311 102.354 62.8235 102.388 60.8078 101.386C58.7413 100.35 57.6403 98.8124 56.5731 95.3745C54.947 90.209 54.1847 82.5559 54.0662 70.5838C53.6766 29.7784 53.6088 25.7358 53.1515 18.8428C52.6941 12.0534 51.9657 8.30457 51.1188 8.30457C50.78 8.30457 50.1871 11.6561 48.8151 21.4342C48.1206 26.4268 47.3584 31.7133 47.1212 33.1817C44.123 52.2542 40.6336 62.7751 36.5683 65.021C35.8738 65.4183 35.5859 65.4874 35.0777 65.3837C32.8756 64.9864 31.0971 62.6542 30.1824 58.9744C29.6742 56.9186 29.3862 54.6037 29.5387 53.6535C29.6911 52.5824 29.4709 51.4595 29.1321 51.5286C28.7934 51.5977 27.4721 54.1027 26.5236 56.504C25.9138 58.0761 25.6766 58.4562 24.7958 59.3545C23.5931 60.5638 21.0862 62.0841 19.8158 62.3605C16.6651 63.0515 5.09589 63.2416 -32.4915 63.2416Z" fill="#C00010"/>
</svg>
