<svg width="182" height="103" viewBox="0 0 182 103" fill="none" xmlns="http://www.w3.org/2000/svg">
<path d="M34.0951 63.2416H0.556152L3.0631 56.4695L7.41639 56.6077C9.80477 56.6768 26.4557 56.7459 44.4447 56.7459C74.6976 56.7631 77.3061 56.7459 79.5082 56.4522C84.8778 55.7611 87.5203 54.6209 88.5705 52.5133C88.7568 52.1505 89.1295 50.9585 89.4005 49.8701C90.7556 44.5146 93.6352 40.8867 96.5318 40.8867C98.0563 40.8867 99.225 41.7678 100.224 43.6854C101.241 45.6203 102.122 49.7492 102.122 52.5478C102.122 53.498 102.206 53.9472 102.443 54.31C102.765 54.8282 103.443 55.3811 103.578 55.2429C103.629 55.2083 103.815 53.688 103.985 51.8568C104.967 42.096 106.475 33.078 109.829 16.6833C111.709 7.44079 113.149 3.67468 115.842 0.858727C118.925 -2.35457 122.567 -1.33533 124.04 3.15638C124.989 6.00688 125.48 14.4202 126.005 36.9824C126.886 74.5399 127.547 92.4722 128.038 93.2841C128.36 93.8197 129.122 92.7659 129.732 90.9519C130.494 88.7061 130.918 85.5446 131.341 79.0489C131.646 74.3499 131.968 71.1366 132.357 69.1672C133.933 61.1857 138.54 57.7651 148.958 56.8495C150.143 56.7459 157.258 56.6768 165.998 56.6768H181.023L180.921 63.1552L163.932 63.1033C147.501 63.0688 146.874 63.0688 145.265 63.4143C144.35 63.6043 143.317 63.8808 142.995 64.0535C141.403 64.8137 139.59 67.5605 138.659 70.5838C137.642 73.8834 137.117 77.0795 136.169 85.7864C135.051 95.9273 134.136 99.4689 132.137 101.248C130.918 102.354 129.41 102.388 127.394 101.386C125.328 100.35 124.227 98.8124 123.16 95.3745C121.534 90.209 120.771 82.5559 120.653 70.5838C120.263 29.7784 120.195 25.7358 119.738 18.8428C119.281 12.0534 118.552 8.30457 117.705 8.30457C117.367 8.30457 116.774 11.6561 115.402 21.4342C114.707 26.4268 113.945 31.7133 113.708 33.1817C110.71 52.2542 107.22 62.7751 103.155 65.021C102.46 65.4183 102.172 65.4874 101.664 65.3837C99.4622 64.9864 97.6836 62.6542 96.7689 58.9744C96.2607 56.9186 95.9728 54.6037 96.1252 53.6535C96.2777 52.5824 96.0575 51.4595 95.7187 51.5286C95.3799 51.5977 94.0587 54.1027 93.1101 56.504C92.5003 58.0761 92.2632 58.4562 91.3823 59.3545C90.1797 60.5638 87.6727 62.0841 86.4023 62.3605C83.2517 63.0515 71.6824 63.2416 34.0951 63.2416Z" fill="#C00010"/>
</svg>
