<svg width="17" height="15" viewBox="0 0 17 15" fill="none" xmlns="http://www.w3.org/2000/svg">
<path d="M15.75 0H0.75C0.551088 0 0.360322 0.0790176 0.21967 0.21967C0.0790176 0.360322 0 0.551088 0 0.75V6.75C0 6.94891 0.0790176 7.13968 0.21967 7.28033C0.360322 7.42098 0.551088 7.5 0.75 7.5H3V14.25C3 14.4489 3.07902 14.6397 3.21967 14.7803C3.36032 14.921 3.55109 15 3.75 15H12.75C12.9489 15 13.1397 14.921 13.2803 14.7803C13.421 14.6397 13.5 14.4489 13.5 14.25V7.5H15.75C15.9489 7.5 16.1397 7.42098 16.2803 7.28033C16.421 7.13968 16.5 6.94891 16.5 6.75V0.75C16.5 0.551088 16.421 0.360322 16.2803 0.21967C16.1397 0.0790176 15.9489 0 15.75 0ZM4.5 13.5V12C4.89782 12 5.27935 12.158 5.56066 12.4393C5.84196 12.7206 6 13.1022 6 13.5H4.5ZM12 13.5H10.5C10.5 13.1022 10.658 12.7206 10.9393 12.4393C11.2206 12.158 11.6022 12 12 12V13.5ZM12 10.5C11.2043 10.5 10.4413 10.8161 9.87868 11.3787C9.31607 11.9413 9 12.7044 9 13.5H7.5C7.5 12.7044 7.18393 11.9413 6.62132 11.3787C6.05871 10.8161 5.29565 10.5 4.5 10.5V4.5H12V10.5ZM15 6H13.5V3.75C13.5 3.55109 13.421 3.36032 13.2803 3.21967C13.1397 3.07902 12.9489 3 12.75 3H3.75C3.55109 3 3.36032 3.07902 3.21967 3.21967C3.07902 3.36032 3 3.55109 3 3.75V6H1.5V1.5H15V6ZM8.25 9.75C8.69501 9.75 9.13002 9.61804 9.50003 9.37081C9.87004 9.12357 10.1584 8.77217 10.3287 8.36104C10.499 7.9499 10.5436 7.4975 10.4568 7.06105C10.3699 6.62459 10.1557 6.22368 9.84099 5.90901C9.52632 5.59434 9.12541 5.38005 8.68895 5.29323C8.25249 5.20642 7.80009 5.25097 7.38896 5.42127C6.97783 5.59157 6.62643 5.87996 6.37919 6.24997C6.13196 6.61998 6 7.05499 6 7.5C6 8.09674 6.23705 8.66903 6.65901 9.09099C7.08097 9.51295 7.65326 9.75 8.25 9.75ZM8.25 6.75C8.39833 6.75 8.54334 6.79399 8.66668 6.8764C8.79001 6.95881 8.88614 7.07594 8.94291 7.21299C8.99967 7.35003 9.01453 7.50083 8.98559 7.64632C8.95665 7.7918 8.88522 7.92544 8.78033 8.03033C8.67544 8.13522 8.5418 8.20665 8.39632 8.23559C8.25083 8.26453 8.10003 8.24968 7.96299 8.19291C7.82594 8.13614 7.70881 8.04002 7.6264 7.91668C7.54399 7.79334 7.5 7.64834 7.5 7.5C7.5 7.30109 7.57902 7.11032 7.71967 6.96967C7.86032 6.82902 8.05109 6.75 8.25 6.75Z" fill="#1DC1B4"/>
</svg>
