<svg width="17" height="16" viewBox="0 0 17 16" fill="none" xmlns="http://www.w3.org/2000/svg">
<path d="M15.75 0.914062H0.75C0.551088 0.914063 0.360322 0.99308 0.21967 1.13373C0.0790176 1.27438 0 1.46515 0 1.66406V7.66406C0 7.86298 0.0790176 8.05374 0.21967 8.19439C0.360322 8.33505 0.551088 8.41406 0.75 8.41406H3V15.1641C3 15.363 3.07902 15.5537 3.21967 15.6944C3.36032 15.835 3.55109 15.9141 3.75 15.9141H12.75C12.9489 15.9141 13.1397 15.835 13.2803 15.6944C13.421 15.5537 13.5 15.363 13.5 15.1641V8.41406H15.75C15.9489 8.41406 16.1397 8.33505 16.2803 8.19439C16.421 8.05374 16.5 7.86298 16.5 7.66406V1.66406C16.5 1.46515 16.421 1.27438 16.2803 1.13373C16.1397 0.99308 15.9489 0.914063 15.75 0.914062ZM4.5 14.4141V12.9141C4.89782 12.9141 5.27935 13.0721 5.56066 13.3534C5.84196 13.6347 6 14.0162 6 14.4141H4.5ZM12 14.4141H10.5C10.5 14.0162 10.658 13.6347 10.9393 13.3534C11.2206 13.0721 11.6022 12.9141 12 12.9141V14.4141ZM12 11.4141C11.2043 11.4141 10.4413 11.7301 9.87868 12.2927C9.31607 12.8554 9 13.6184 9 14.4141H7.5C7.5 13.6184 7.18393 12.8554 6.62132 12.2927C6.05871 11.7301 5.29565 11.4141 4.5 11.4141V5.41406H12V11.4141ZM15 6.91406H13.5V4.66406C13.5 4.46515 13.421 4.27438 13.2803 4.13373C13.1397 3.99308 12.9489 3.91406 12.75 3.91406H3.75C3.55109 3.91406 3.36032 3.99308 3.21967 4.13373C3.07902 4.27438 3 4.46515 3 4.66406V6.91406H1.5V2.41406H15V6.91406ZM8.25 10.6641C8.69501 10.6641 9.13002 10.5321 9.50003 10.2849C9.87004 10.0376 10.1584 9.68623 10.3287 9.2751C10.499 8.86397 10.5436 8.41157 10.4568 7.97511C10.3699 7.53865 10.1557 7.13774 9.84099 6.82307C9.52632 6.5084 9.12541 6.29411 8.68895 6.2073C8.25249 6.12048 7.80009 6.16504 7.38896 6.33533C6.97783 6.50563 6.62643 6.79402 6.37919 7.16403C6.13196 7.53404 6 7.96905 6 8.41406C6 9.0108 6.23705 9.5831 6.65901 10.0051C7.08097 10.427 7.65326 10.6641 8.25 10.6641ZM8.25 7.66406C8.39833 7.66406 8.54334 7.70805 8.66668 7.79046C8.79001 7.87287 8.88614 7.99001 8.94291 8.12705C8.99967 8.26409 9.01453 8.4149 8.98559 8.56038C8.95665 8.70587 8.88522 8.8395 8.78033 8.94439C8.67544 9.04928 8.5418 9.12071 8.39632 9.14965C8.25083 9.17859 8.10003 9.16374 7.96299 9.10697C7.82594 9.05021 7.70881 8.95408 7.6264 8.83074C7.54399 8.7074 7.5 8.5624 7.5 8.41406C7.5 8.21515 7.57902 8.02438 7.71967 7.88373C7.86032 7.74308 8.05109 7.66406 8.25 7.66406Z" fill="white"/>
</svg>
